<?xml version="1.0" encoding="UTF-8"?>
<svg version="1.1" xmlns="http://www.w3.org/2000/svg" width="133" height="79">
<path d="M0 0 C43.89 0 87.78 0 133 0 C133 26.07 133 52.14 133 79 C89.11 79 45.22 79 0 79 C0 52.93 0 26.86 0 0 Z " fill="#F7F9F9" transform="translate(0,0)"/>
<path d="M0 0 C43.89 0 87.78 0 133 0 C133 18.48 133 36.96 133 56 C128.5 52.625 128.5 52.625 127.75 48.3125 C127.60046875 47.50425781 127.4509375 46.69601563 127.296875 45.86328125 C127.19890625 45.24839844 127.1009375 44.63351563 127 44 C122.66668104 43.9707573 118.33338779 43.95311983 114 43.9375 C112.16888672 43.92493164 112.16888672 43.92493164 110.30078125 43.91210938 C104.10039068 43.89535156 98.1273793 44.02727854 92 45 C90.35 49.95 88.7 54.9 87 60 C83.04 59.34 79.08 58.68 75 58 C74.505 58.99 74.505 58.99 74 60 C74.30904171 57.72869344 74.62234907 55.45796695 74.9375 53.1875 C75.11152344 51.92292969 75.28554687 50.65835938 75.46484375 49.35546875 C76 46 76 46 77 43 C75.02 43 73.04 43 71 43 C71.90325616 41.67823515 72.82317903 40.36784934 73.75 39.0625 C74.26046875 38.33160156 74.7709375 37.60070313 75.296875 36.84765625 C77.23092885 34.74947398 78.22493646 34.39565262 81 34 C81.928125 33.814375 82.85625 33.62875 83.8125 33.4375 C87.24445011 32.96644802 90.54010504 32.9308021 94 33 C91.36 31.68 88.72 30.36 86 29 C86 27.68 86 26.36 86 25 C88.60692762 24.59266756 90.38517931 24.56841405 92.5859375 26.11328125 C93.17632812 26.57089844 93.76671875 27.02851563 94.375 27.5 C100.17933147 31.47787196 107.28331407 30.39355582 114 30 C113.01 30 112.02 30 111 30 C108.66666667 30 106.33333333 30 104 30 C103.67 28.35 103.34 26.7 103 25 C108.28 25 113.56 25 119 25 C109.55911495 22.87247661 100.61430618 22.79711898 91 23 C91 21.68 91 20.36 91 19 C95.66666667 19 100.33333333 19 105 19 C101.18384532 16.52954197 97.15255752 16.56168088 92.75 16.375 C92.00492187 16.33632813 91.25984375 16.29765625 90.4921875 16.2578125 C88.6618476 16.16394892 86.83095857 16.08090282 85 16 C85 15.34 85 14.68 85 14 C85.66 13.67 86.32 13.34 87 13 C85.02 12.67 83.04 12.34 81 12 C81 8.7 81 5.4 81 2 C68.46 2 55.92 2 43 2 C43 4.97 43 7.94 43 11 C40.69 11 38.38 11 36 11 C36.99 11.66 37.98 12.32 39 13 C39 13.66 39 14.32 39 15 C37.77023438 15.03738281 36.54046875 15.07476562 35.2734375 15.11328125 C33.64059599 15.17897028 32.00778482 15.24541659 30.375 15.3125 C29.56675781 15.33505859 28.75851563 15.35761719 27.92578125 15.38085938 C22.91164875 15.60506855 19.39953264 16.34461865 15 19 C16.11375 18.7525 16.11375 18.7525 17.25 18.5 C22.50409401 17.79945413 27.70751749 17.92292501 33 18 C33 19.32 33 20.64 33 22 C31.75863281 21.98839844 30.51726563 21.97679688 29.23828125 21.96484375 C27.59635568 21.95546132 25.95442847 21.9463616 24.3125 21.9375 C23.49587891 21.92912109 22.67925781 21.92074219 21.83789062 21.91210938 C21.04189453 21.90888672 20.24589844 21.90566406 19.42578125 21.90234375 C18.69786377 21.89710693 17.96994629 21.89187012 17.2199707 21.88647461 C14.5145566 21.9707456 14.5145566 21.9707456 10 23 C13.63 23.33 17.26 23.66 21 24 C20.67 25.32 20.34 26.64 20 28 C18.5421403 28.05583292 17.08359017 28.09358421 15.625 28.125 C14.40683594 28.15980469 14.40683594 28.15980469 13.1640625 28.1953125 C8.72389436 27.92122805 4.36223031 26.87244606 0 26 C0 17.42 0 8.84 0 0 Z " fill="#FBFCFC" transform="translate(0,0)"/>
<path d="M0 0 C0.99 2.97 0.99 2.97 2 6 C2.66 6 3.32 6 4 6 C6.57996518 11.87094438 6.22552426 17.59609985 6.125 23.875 C6.11597656 24.94492188 6.10695313 26.01484375 6.09765625 27.1171875 C6.07419342 29.74502439 6.04136459 32.37239406 6 35 C-1.59884796 35.05071764 -9.19765224 35.08574107 -16.79663086 35.10986328 C-19.38160839 35.11991967 -21.96657455 35.13356649 -24.55151367 35.15087891 C-28.26744392 35.17514271 -31.98322373 35.18648684 -35.69921875 35.1953125 C-36.85459641 35.20563507 -38.00997406 35.21595764 -39.20036316 35.22659302 C-40.28110611 35.22674408 -41.36184906 35.22689514 -42.4753418 35.22705078 C-43.89764351 35.23371262 -43.89764351 35.23371262 -45.34867859 35.24050903 C-48.22296496 34.9797742 -50.38686812 34.19554424 -53 33 C-53 30.69 -53 28.38 -53 26 C-53.99 26 -54.98 26 -56 26 C-55.95875 26.78375 -55.9175 27.5675 -55.875 28.375 C-56 31 -56 31 -58 33 C-60.5625 32.75 -60.5625 32.75 -63 32 C-64.4783226 29.04335481 -64.06032783 26.25770263 -64 23 C-65.65 22.34 -67.3 21.68 -69 21 C-68.67 21.721875 -68.34 22.44375 -68 23.1875 C-66.97916828 26.05858922 -66.67403105 27.98478721 -67 31 C-69 33 -69 33 -71.5 33.3125 C-72.325 33.209375 -73.15 33.10625 -74 33 C-76.59500704 29.10748944 -75.86590203 27.4869469 -75 23 C-74.67516582 21.66457061 -74.3449145 20.33038449 -74 19 C-74 18.34 -74 17.68 -74 17 C-74.99 17 -75.98 17 -77 17 C-76.67 19.31 -76.34 21.62 -76 24 C-77.32 24 -78.64 24 -80 24 C-80.66 26.64 -81.32 29.28 -82 32 C-82.66 32 -83.32 32 -84 32 C-84.309375 30.906875 -84.61875 29.81375 -84.9375 28.6875 C-85.58337897 26.44592006 -86.2623117 24.2130649 -87 22 C-86.01 22 -85.02 22 -84 22 C-83.67 22.99 -83.34 23.98 -83 25 C-82.54625 24.505 -82.0925 24.01 -81.625 23.5 C-80 22 -80 22 -78 22 C-78 21.34 -78 20.68 -78 20 C-79.32 20 -80.64 20 -82 20 C-81.35587386 17.22875964 -80.70977252 14.45800555 -80.0625 11.6875 C-79.88009766 10.90181641 -79.69769531 10.11613281 -79.50976562 9.30664062 C-79.33251953 8.54931641 -79.15527344 7.79199219 -78.97265625 7.01171875 C-78.81031494 6.31522217 -78.64797363 5.61872559 -78.48071289 4.90112305 C-78.06234435 3.2465594 -77.53968631 1.61905892 -77 0 C-73.7 0 -70.4 0 -67 0 C-66.67 2.97 -66.34 5.94 -66 9 C-64.35 6.03 -62.7 3.06 -61 0 C-57.37 0 -53.74 0 -50 0 C-50.14076315 1.9587043 -50.2877676 3.91696093 -50.4375 5.875 C-50.51871094 6.96554688 -50.59992188 8.05609375 -50.68359375 9.1796875 C-51 12 -51 12 -52 14 C-51.38511719 14 -50.77023438 14 -50.13671875 14 C-46.7578125 14 -43.37890625 14 -40 14 C-39.72285156 13.07316406 -39.44570312 12.14632812 -39.16015625 11.19140625 C-38.79792969 9.99386719 -38.43570313 8.79632813 -38.0625 7.5625 C-37.70285156 6.36753906 -37.34320313 5.17257813 -36.97265625 3.94140625 C-36 1 -36 1 -35 0 C-23.46231067 -2.03606282 -11.59536428 -1.07863854 0 0 Z " fill="#F5F9FB" transform="translate(127,44)"/>
<path d="M0 0 C12.54 0 25.08 0 38 0 C38 3.3 38 6.6 38 10 C41.96 10 45.92 10 50 10 C50 10.33 50 10.66 50 11 C47.36 11.33 44.72 11.66 42 12 C42 12.66 42 13.32 42 14 C43.07378906 13.96519531 44.14757812 13.93039062 45.25390625 13.89453125 C46.69008839 13.86637082 48.12628762 13.83907309 49.5625 13.8125 C50.26697266 13.78736328 50.97144531 13.76222656 51.69726562 13.73632812 C56.831151 13.66535275 60.28587883 14.80007679 65 17 C67.57852838 17.5495514 67.57852838 17.5495514 69.9375 17.6875 C70.70964844 17.75324219 71.48179688 17.81898437 72.27734375 17.88671875 C72.84582031 17.92410156 73.41429688 17.96148438 74 18 C74 18.33 74 18.66 74 19 C72.06257659 19.02703381 70.12504521 19.04641125 68.1875 19.0625 C67.10855469 19.07410156 66.02960938 19.08570312 64.91796875 19.09765625 C62 19 62 19 59 18 C57.10529184 17.9314505 55.2083166 17.91519628 53.3125 17.9375 C52.31863281 17.94652344 51.32476562 17.95554687 50.30078125 17.96484375 C49.54152344 17.97644531 48.78226562 17.98804687 48 18 C48 18.66 48 19.32 48 20 C49.06476563 19.97679688 50.12953125 19.95359375 51.2265625 19.9296875 C60.71242259 19.7891725 69.63370622 20.33751996 79 22 C75.13209648 24.57860235 72.23386085 24.01114505 67.8125 23.625 C67.06291016 23.56828125 66.31332031 23.5115625 65.54101562 23.453125 C63.69323441 23.31189331 61.846488 23.15723833 60 23 C60.495 24.98 60.495 24.98 61 27 C66.41499441 27.11521265 71.62915894 26.68201156 77 26 C70.67267439 30.21821707 63.32901083 29.71838062 56 29 C53.53051539 27.93473213 51.70084867 26.75256829 49.5859375 25.11328125 C47.38517931 23.56841405 45.60692762 23.59266756 43 24 C43 24.66 43 25.32 43 26 C48.04140164 28.81532819 52.22621075 30.5188509 58 31 C58 31.33 58 31.66 58 32 C53.05 32 48.1 32 43 32 C43 32.33 43 32.66 43 33 C41.80375 32.855625 40.6075 32.71125 39.375 32.5625 C37.14483538 32.45217618 37.14483538 32.45217618 35 33 C33.34674915 34.53961475 33.34674915 34.53961475 32 36.5 C29.51954471 39.86390511 29.51954471 39.86390511 26.95703125 40.53515625 C23.18755634 40.58321877 21.1529513 40.10196753 18 38 C17.34 38.66 16.68 39.32 16 40 C10.92307692 40.84615385 10.92307692 40.84615385 8 40 C6.27621518 38.04580829 4.98214631 35.97201446 3.58203125 33.77734375 C2.14553606 31.8203923 2.14553606 31.8203923 -0.11328125 31.50390625 C-2.56706146 31.53578351 -2.56706146 31.53578351 -6 32 C-6.33 31.67 -6.66 31.34 -7 31 C-9.01964199 30.92755947 -11.04167124 30.91622812 -13.0625 30.9375 C-14.16722656 30.94652344 -15.27195312 30.95554687 -16.41015625 30.96484375 C-17.26480469 30.97644531 -18.11945312 30.98804687 -19 31 C-18.67 30.34 -18.34 29.68 -18 29 C-16.02843549 28.50710887 -14.05560989 28.01817766 -12.07421875 27.56640625 C-9.36140023 26.82561777 -7.26678929 25.64857403 -5 24 C-4.67 23.34 -4.34 22.68 -4 22 C-5.19625 22.2475 -6.3925 22.495 -7.625 22.75 C-8.29789063 22.88921875 -8.97078125 23.0284375 -9.6640625 23.171875 C-12.21369917 23.95127076 -12.21369917 23.95127076 -14.8203125 26.05078125 C-21.05864848 29.87501916 -29.23289292 28.80493741 -36.19921875 27.31640625 C-38.51045741 26.62732083 -40.75785678 25.88630603 -43 25 C-43 24.67 -43 24.34 -43 24 C-42.39414062 24.0721875 -41.78828125 24.144375 -41.1640625 24.21875 C-35.08165405 24.8924937 -29.11697862 25.11713363 -23 25 C-22.67 24.01 -22.34 23.02 -22 22 C-27.94 22 -33.88 22 -40 22 C-40 21.67 -40 21.34 -40 21 C-29.95726488 18.7945366 -20.21548751 18.79569025 -10 19 C-10 18.34 -10 17.68 -10 17 C-11.93742341 16.97296619 -13.87495479 16.95358875 -15.8125 16.9375 C-16.89144531 16.92589844 -17.97039063 16.91429688 -19.08203125 16.90234375 C-22.06512169 16.86375234 -22.06512169 16.86375234 -25 18 C-26.72795352 18.06802967 -28.45835365 18.08495645 -30.1875 18.0625 C-31.08855469 18.05347656 -31.98960938 18.04445313 -32.91796875 18.03515625 C-33.60503906 18.02355469 -34.29210938 18.01195313 -35 18 C-35 17.67 -35 17.34 -35 17 C-34.39671875 16.87882812 -33.7934375 16.75765625 -33.171875 16.6328125 C-32.37265625 16.46523438 -31.5734375 16.29765625 -30.75 16.125 C-29.56664062 15.88136719 -29.56664062 15.88136719 -28.359375 15.6328125 C-26.01268572 15.10309009 -26.01268572 15.10309009 -24.12304688 13.97265625 C-21.76611713 12.89284851 -20.24769586 12.76789006 -17.671875 12.8046875 C-16.87265625 12.81113281 -16.0734375 12.81757813 -15.25 12.82421875 C-14.425 12.84097656 -13.6 12.85773437 -12.75 12.875 C-11.90953125 12.88402344 -11.0690625 12.89304687 -10.203125 12.90234375 C-8.13529396 12.92584183 -6.06761005 12.96171092 -4 13 C-4.45375 12.54625 -4.9075 12.0925 -5.375 11.625 C-6.58333333 10.41666667 -7.79166667 9.20833333 -9 8 C-6.03 8.33 -3.06 8.66 0 9 C0 6.03 0 3.06 0 0 Z " fill="#15171A" transform="translate(43,2)"/>
<path d="M0 0 C2.97 0 5.94 0 9 0 C9.02505615 0.77190674 9.0501123 1.54381348 9.07592773 2.33911133 C9.19184007 5.83041181 9.31458824 9.32143922 9.4375 12.8125 C9.47681641 14.02744141 9.51613281 15.24238281 9.55664062 16.49414062 C9.61948242 18.23920898 9.61948242 18.23920898 9.68359375 20.01953125 C9.72025146 21.09307861 9.75690918 22.16662598 9.79467773 23.27270508 C9.89541847 26.09311553 9.89541847 26.09311553 11 29 C11.66 29 12.32 29 13 29 C13 19.43 13 9.86 13 0 C16.3 0 19.6 0 23 0 C23.495 14.355 23.495 14.355 24 29 C24.66 29 25.32 29 26 29 C26 19.43 26 9.86 26 0 C28.97 0 31.94 0 35 0 C35.17589622 4.14528764 35.28138813 8.28960272 35.375 12.4375 C35.42527344 13.60216797 35.47554687 14.76683594 35.52734375 15.96679688 C35.66357535 24.02716676 34.38553012 28.92038571 29 35 C27 37 27 37 23.875 37.125 C22.92625 37.08375 21.9775 37.0425 21 37 C20.34 35.68 19.68 34.36 19 33 C18.29875 33.66 17.5975 34.32 16.875 35 C13.45567295 37.3786623 12.0816111 37.48443364 8 37 C3.89422452 34.3772471 1.38028414 30.63325167 0 26 C-0.98879576 17.38159044 -0.49590529 8.6411497 0 0 Z " fill="#7087A8" transform="translate(44,4)"/>
<path d="M0 0 C3.14581423 -0.02888514 6.29159469 -0.04675923 9.4375 -0.0625 C10.33533203 -0.07087891 11.23316406 -0.07925781 12.15820312 -0.08789062 C13.01220703 -0.09111328 13.86621094 -0.09433594 14.74609375 -0.09765625 C15.93223267 -0.10551147 15.93223267 -0.10551147 17.14233398 -0.11352539 C19 0 19 0 20 1 C19.91062197 2.52519276 19.75462854 4.04681929 19.5625 5.5625 C19.46066406 6.38878906 19.35882812 7.21507812 19.25390625 8.06640625 C19.17011719 8.70449219 19.08632813 9.34257813 19 10 C17.68 10.33 16.36 10.66 15 11 C15.66 12.32 16.32 13.64 17 15 C17.99 14.67 18.98 14.34 20 14 C20.87987606 11.61933199 21.57258894 9.38518099 22.1875 6.9375 C22.36474609 6.27427734 22.54199219 5.61105469 22.72460938 4.92773438 C23.16105196 3.28812574 23.58200219 1.64440762 24 0 C27.14581423 -0.02888514 30.29159469 -0.04675923 33.4375 -0.0625 C34.33533203 -0.07087891 35.23316406 -0.07925781 36.15820312 -0.08789062 C37.01220703 -0.09111328 37.86621094 -0.09433594 38.74609375 -0.09765625 C39.53685303 -0.10289307 40.3276123 -0.10812988 41.14233398 -0.11352539 C43 0 43 0 44 1 C43.984375 2.9609375 43.984375 2.9609375 43.75 5.375 C43.68296875 6.16648437 43.6159375 6.95796875 43.546875 7.7734375 C42.88225691 10.47938257 42.3099386 11.43842164 40 13 C37.30078125 13.29296875 37.30078125 13.29296875 34.3125 13.1875 C33.31863281 13.16042969 32.32476562 13.13335937 31.30078125 13.10546875 C30.54152344 13.07066406 29.78226563 13.03585938 29 13 C29.1546875 14.6396875 29.1546875 14.6396875 29.3125 16.3125 C29.209375 17.529375 29.10625 18.74625 29 20 C26.5 21.9375 26.5 21.9375 24 23 C24 22.34 24 21.68 24 21 C23.34 21.66 22.68 22.32 22 23 C24.31 23.33 26.62 23.66 29 24 C29 26.64 29 29.28 29 32 C27.68 31.01 26.36 30.02 25 29 C25 30.32 25 31.64 25 33 C23.68 32.67 22.36 32.34 21 32 C21 30.35 21 28.7 21 27 C20.731875 27.61875 20.46375 28.2375 20.1875 28.875 C19 31 19 31 16 33 C11.45945946 32.45945946 11.45945946 32.45945946 10 31 C10.28730055 28.66055264 10.61936779 26.3260857 11 24 C11.99 24 12.98 24 14 24 C14 23.01 14 22.02 14 21 C11.58380177 20.74969023 11.58380177 20.74969023 9 21 C8.34 21.99 7.68 22.98 7 24 C5.68 23.67 4.36 23.34 3 23 C3 23.99 3 24.98 3 26 C3.99 26 4.98 26 6 26 C6 26.66 6 27.32 6 28 C5.01 28 4.02 28 3 28 C3 29.65 3 31.3 3 33 C2.01 33 1.02 33 0 33 C-0.04898437 32.14535156 -0.09796875 31.29070312 -0.1484375 30.41015625 C-0.26058594 28.75306641 -0.26058594 28.75306641 -0.375 27.0625 C-0.44460938 25.96035156 -0.51421875 24.85820313 -0.5859375 23.72265625 C-0.72257813 22.82417969 -0.85921875 21.92570312 -1 21 C-1.66 20.67 -2.32 20.34 -3 20 C-3.40850553 12.91923749 -1.90420731 6.80074041 0 0 Z " fill="#285FA3" transform="translate(3,44)"/>
<path d="M0 0 C3.3 0 6.6 0 10 0 C10.66 1.98 11.32 3.96 12 6 C12.66 6 13.32 6 14 6 C16.57996518 11.87094438 16.22552426 17.59609985 16.125 23.875 C16.11597656 24.94492188 16.10695312 26.01484375 16.09765625 27.1171875 C16.07419342 29.74502439 16.04136459 32.37239406 16 35 C12.87501937 35.02895976 9.7500731 35.04678483 6.625 35.0625 C5.73554687 35.07087891 4.84609375 35.07925781 3.9296875 35.08789062 C2.65351562 35.09272461 2.65351562 35.09272461 1.3515625 35.09765625 C0.17327881 35.10551147 0.17327881 35.10551147 -1.02880859 35.11352539 C-3 35 -3 35 -5 34 C-5 33.34 -5 32.68 -5 32 C-6.093125 32.20625 -7.18625 32.4125 -8.3125 32.625 C-12 33 -12 33 -15 31 C-15.1875 28.375 -15.1875 28.375 -15 26 C-11.91190305 24.23537317 -10.76687864 24 -7 24 C-7.165 24.804375 -7.33 25.60875 -7.5 26.4375 C-8.03191839 28.7284443 -8.03191839 28.7284443 -8 30 C-7.01 30.33 -6.02 30.66 -5 31 C-5.04125 30.21625 -5.0825 29.4325 -5.125 28.625 C-5 26 -5 26 -3 24 C-1.01178687 23.60235737 0.98944339 23.26224651 3 23 C3 20.69 3 18.38 3 16 C0.36 16 -2.28 16 -5 16 C-5.66 17.32 -6.32 18.64 -7 20 C-8.65 20 -10.3 20 -12 20 C-7.93027473 13.36721371 -7.93027473 13.36721371 -4.625 12.0625 C-1.41280254 11.98601911 1.78716184 11.93700317 5 12 C4.34 9.69 3.68 7.38 3 5 C2.401875 5.825 1.80375 6.65 1.1875 7.5 C0.465625 8.325 -0.25625 9.15 -1 10 C-1.99 10 -2.98 10 -4 10 C-2.66666667 6.66666667 -1.33333333 3.33333333 0 0 Z " fill="#F3F5F4" transform="translate(117,44)"/>
<path d="M0 0 C2.97 0 5.94 0 9 0 C9.02505615 0.77190674 9.0501123 1.54381348 9.07592773 2.33911133 C9.19184007 5.83041181 9.31458824 9.32143922 9.4375 12.8125 C9.47681641 14.02744141 9.51613281 15.24238281 9.55664062 16.49414062 C9.61948242 18.23920898 9.61948242 18.23920898 9.68359375 20.01953125 C9.72025146 21.09307861 9.75690918 22.16662598 9.79467773 23.27270508 C9.89541847 26.09311553 9.89541847 26.09311553 11 29 C11.66 29 12.32 29 13 29 C13 19.43 13 9.86 13 0 C15.97 0 18.94 0 22 0 C22 8.58 22 17.16 22 26 C21.67 26 21.34 26 21 26 C21 17.75 21 9.5 21 1 C19.02 1 17.04 1 15 1 C15.33 1.99 15.66 2.98 16 4 C16.13737463 5.82145308 16.2246423 7.64690745 16.28125 9.47265625 C16.31863281 10.53677734 16.35601562 11.60089844 16.39453125 12.69726562 C16.46496605 14.94465763 16.53527813 17.19205348 16.60546875 19.43945312 C16.64285156 20.50228516 16.68023437 21.56511719 16.71875 22.66015625 C16.74904297 23.63605713 16.77933594 24.61195801 16.81054688 25.61743164 C16.85139405 28.01521196 16.85139405 28.01521196 18 30 C18.99 30.66 19.98 31.32 21 32 C21 32.66 21 33.32 21 34 C25.14093698 34.20970559 25.14093698 34.20970559 29 33 C28.34 34.32 27.68 35.64 27 37 C25.02 37 23.04 37 21 37 C20.34 35.68 19.68 34.36 19 33 C18.29875 33.66 17.5975 34.32 16.875 35 C13.45567295 37.3786623 12.0816111 37.48443364 8 37 C3.89422452 34.3772471 1.38028414 30.63325167 0 26 C-0.98879576 17.38159044 -0.49590529 8.6411497 0 0 Z " fill="#7B98C1" transform="translate(44,4)"/>
<path d="M0 0 C3.3 0 6.6 0 10 0 C10.33 2.97 10.66 5.94 11 9 C12.65 6.03 14.3 3.06 16 0 C19.63 0 23.26 0 27 0 C26.35587386 2.77124036 25.70977252 5.54199445 25.0625 8.3125 C24.88009766 9.09818359 24.69769531 9.88386719 24.50976562 10.69335938 C24.33251953 11.45068359 24.15527344 12.20800781 23.97265625 12.98828125 C23.81031494 13.68477783 23.64797363 14.38127441 23.48071289 15.09887695 C23.06234435 16.7534406 22.53968631 18.38094108 22 20 C19.36 20 16.72 20 14 20 C14.66 16.04 15.32 12.08 16 8 C15.32904297 9.299375 15.32904297 9.299375 14.64453125 10.625 C14.03996094 11.73875 13.43539062 12.8525 12.8125 14 C12.22082031 15.11375 11.62914063 16.2275 11.01953125 17.375 C9 20 9 20 6.26171875 20.375 C5.51535156 20.25125 4.76898438 20.1275 4 20 C3.67 19.01 3.34 18.02 3 17 C2.01 17 1.02 17 0 17 C0.33 19.31 0.66 21.62 1 24 C-0.32 24 -1.64 24 -3 24 C-3.66 26.64 -4.32 29.28 -5 32 C-5.66 32 -6.32 32 -7 32 C-7.309375 30.906875 -7.61875 29.81375 -7.9375 28.6875 C-8.58337897 26.44592006 -9.2623117 24.2130649 -10 22 C-9.01 22 -8.02 22 -7 22 C-6.67 22.99 -6.34 23.98 -6 25 C-5.54625 24.505 -5.0925 24.01 -4.625 23.5 C-3 22 -3 22 -1 22 C-1 21.34 -1 20.68 -1 20 C-2.32 20 -3.64 20 -5 20 C-4.35587386 17.22875964 -3.70977252 14.45800555 -3.0625 11.6875 C-2.88009766 10.90181641 -2.69769531 10.11613281 -2.50976562 9.30664062 C-2.33251953 8.54931641 -2.15527344 7.79199219 -1.97265625 7.01171875 C-1.81031494 6.31522217 -1.64797363 5.61872559 -1.48071289 4.90112305 C-1.06234435 3.2465594 -0.53968631 1.61905892 0 0 Z " fill="#3864A7" transform="translate(50,44)"/>
<path d="M0 0 C1.18414294 3.55242882 0.69535532 4.69830562 -0.4375 8.1875 C-0.72496094 9.08855469 -1.01242188 9.98960938 -1.30859375 10.91796875 C-1.53675781 11.60503906 -1.76492187 12.29210938 -2 13 C0.64 13 3.28 13 6 13 C6.66 9.37 7.32 5.74 8 2 C8.66 2.33 9.32 2.66 10 3 C9.67 4.32 9.34 5.64 9 7 C11.97 7 14.94 7 18 7 C17.75 9.875 17.75 9.875 17 13 C14.9375 14.375 14.9375 14.375 13 15 C13.99 15.66 14.98 16.32 16 17 C16.546875 19.09375 16.546875 19.09375 16.75 21.5 C16.82734375 22.2940625 16.9046875 23.088125 16.984375 23.90625 C17 26 17 26 16 28 C13.07120629 27.37240135 10.63904371 26.41377341 8 25 C8 23.02 8 21.04 8 19 C7.01 19 6.02 19 5 19 C5.04125 19.78375 5.0825 20.5675 5.125 21.375 C5 24 5 24 3 26 C0.4375 25.75 0.4375 25.75 -2 25 C-3.4783226 22.04335481 -3.06032783 19.25770263 -3 16 C-5.475 15.01 -5.475 15.01 -8 14 C-7.505 15.0828125 -7.505 15.0828125 -7 16.1875 C-5.97916828 19.05858922 -5.67403105 20.98478721 -6 24 C-8 26 -8 26 -10.5 26.3125 C-11.325 26.209375 -12.15 26.10625 -13 26 C-15.58675384 22.11986924 -14.79830401 20.47050246 -14 16 C-14 15.01 -14 14.02 -14 13 C-12.989375 13.0825 -11.97875 13.165 -10.9375 13.25 C-8.93546413 13.11896957 -8.93546413 13.11896957 -7 12 C-4.21296819 8.22836043 -2.08163065 4.19489703 0 0 Z " fill="#C9CDD0" transform="translate(66,51)"/>
<path d="M0 0 C3.14581423 -0.02888514 6.29159469 -0.04675923 9.4375 -0.0625 C10.33533203 -0.07087891 11.23316406 -0.07925781 12.15820312 -0.08789062 C13.01220703 -0.09111328 13.86621094 -0.09433594 14.74609375 -0.09765625 C15.93223267 -0.10551147 15.93223267 -0.10551147 17.14233398 -0.11352539 C19 0 19 0 20 1 C19.984375 2.9609375 19.984375 2.9609375 19.75 5.375 C19.68296875 6.16648437 19.6159375 6.95796875 19.546875 7.7734375 C18.88171024 10.4816083 18.2905718 11.41193618 16 13 C13.30078125 13.51171875 13.30078125 13.51171875 10.3125 13.6875 C9.31863281 13.75324219 8.32476562 13.81898437 7.30078125 13.88671875 C6.54152344 13.92410156 5.78226563 13.96148437 5 14 C4.34 15.98 3.68 17.96 3 20 C0.36 20 -2.28 20 -5 20 C-4.35587386 17.22875964 -3.70977252 14.45800555 -3.0625 11.6875 C-2.88009766 10.90181641 -2.69769531 10.11613281 -2.50976562 9.30664062 C-2.33251953 8.54931641 -2.15527344 7.79199219 -1.97265625 7.01171875 C-1.81031494 6.31522217 -1.64797363 5.61872559 -1.48071289 4.90112305 C-1.06234435 3.2465594 -0.53968631 1.61905892 0 0 Z " fill="#3E6CA7" transform="translate(27,44)"/>
<path d="M0 0 C3.3 0 6.6 0 10 0 C11.66666667 6.66666667 13.33333333 13.33333333 15 20 C12.36 20 9.72 20 7 20 C6.34 18.35 5.68 16.7 5 15 C1.7 14.67 -1.6 14.34 -5 14 C-5.66 15.98 -6.32 17.96 -7 20 C-8.65 20 -10.3 20 -12 20 C-7.93027473 13.36721371 -7.93027473 13.36721371 -4.625 12.0625 C-1.41280254 11.98601911 1.78716184 11.93700317 5 12 C4.34 9.69 3.68 7.38 3 5 C2.401875 5.825 1.80375 6.65 1.1875 7.5 C0.465625 8.325 -0.25625 9.15 -1 10 C-1.99 10 -2.98 10 -4 10 C-2.66666667 6.66666667 -1.33333333 3.33333333 0 0 Z " fill="#295EA0" transform="translate(117,44)"/>
<path d="M0 0 C5.28 0 10.56 0 16 0 C16 0.99 16 1.98 16 3 C11.545 3.495 11.545 3.495 7 4 C5.68 7.96 4.36 11.92 3 16 C6.3 16 9.6 16 13 16 C12.67 17.32 12.34 18.64 12 20 C9.54137599 20.05383848 7.0839245 20.09359038 4.625 20.125 C3.57699219 20.15013672 3.57699219 20.15013672 2.5078125 20.17578125 C0.67102514 20.19344267 -1.16601963 20.10303261 -3 20 C-3.66 19.34 -4.32 18.68 -5 18 C-4.76209469 11.33865145 -2.62373175 6.09382857 0 0 Z " fill="#436FAA" transform="translate(92,44)"/>
<path d="M0 0 C1.98 0 3.96 0 6 0 C6 8.25 6 16.5 6 25 C6.99 25.33 7.98 25.66 9 26 C9 27.32 9 28.64 9 30 C10.32 29.67 11.64 29.34 13 29 C13.33 29.99 13.66 30.98 14 32 C12 34 12 34 9.0625 34.375 C6 34 6 34 4.1875 32.25 C3.07046315 30.13350913 2.55668997 28.30628701 2 26 C1.34 25.67 0.68 25.34 0 25 C0 16.75 0 8.5 0 0 Z " fill="#2F5D9E" transform="translate(46,5)"/>
<path d="M0 0 C3.3 0 6.6 0 10 0 C10 3.96 10 7.92 10 12 C9.01 12.495 9.01 12.495 8 13 C7.67 9.37 7.34 5.74 7 2 C6.01 2 5.02 2 4 2 C4.185625 2.94875 4.37125 3.8975 4.5625 4.875 C5.26768593 9.64479926 4.62132638 14.24924288 4 19 C3.67 18.34 3.34 17.68 3 17 C2.01 17 1.02 17 0 17 C0.33 19.31 0.66 21.62 1 24 C-0.32 24 -1.64 24 -3 24 C-3.66 26.64 -4.32 29.28 -5 32 C-5.66 32 -6.32 32 -7 32 C-7.309375 30.906875 -7.61875 29.81375 -7.9375 28.6875 C-8.58337897 26.44592006 -9.2623117 24.2130649 -10 22 C-9.01 22 -8.02 22 -7 22 C-6.67 22.99 -6.34 23.98 -6 25 C-5.54625 24.505 -5.0925 24.01 -4.625 23.5 C-3 22 -3 22 -1 22 C-1 21.34 -1 20.68 -1 20 C-2.32 20 -3.64 20 -5 20 C-4.35587386 17.22875964 -3.70977252 14.45800555 -3.0625 11.6875 C-2.88009766 10.90181641 -2.69769531 10.11613281 -2.50976562 9.30664062 C-2.33251953 8.54931641 -2.15527344 7.79199219 -1.97265625 7.01171875 C-1.81031494 6.31522217 -1.64797363 5.61872559 -1.48071289 4.90112305 C-1.06234435 3.2465594 -0.53968631 1.61905892 0 0 Z " fill="#3D639A" transform="translate(50,44)"/>
<path d="M0 0 C0.33 0 0.66 0 1 0 C1.3125 2.8125 1.3125 2.8125 1 6 C-1.5 7.875 -1.5 7.875 -4 9 C-4 8.34 -4 7.68 -4 7 C-4.66 7.66 -5.32 8.32 -6 9 C-3.69 9.33 -1.38 9.66 1 10 C1 12.64 1 15.28 1 18 C-0.32 17.01 -1.64 16.02 -3 15 C-3 16.32 -3 17.64 -3 19 C-4.32 18.67 -5.64 18.34 -7 18 C-7 16.35 -7 14.7 -7 13 C-7.268125 13.61875 -7.53625 14.2375 -7.8125 14.875 C-9 17 -9 17 -12 19 C-16.54054054 18.45945946 -16.54054054 18.45945946 -18 17 C-17.71269945 14.66055264 -17.38063221 12.3260857 -17 10 C-16.01 10 -15.02 10 -14 10 C-13.67 8.68 -13.34 7.36 -13 6 C-12.34 6 -11.68 6 -11 6 C-11.33 4.68 -11.66 3.36 -12 2 C-10.68 2 -9.36 2 -8 2 C-8.33 3.32 -8.66 4.64 -9 6 C-6.36 6 -3.72 6 -1 6 C-0.67 4.02 -0.34 2.04 0 0 Z " fill="#E7ECF0" transform="translate(31,58)"/>
<path d="M0 0 C2.33524782 2.25740623 4.18705073 4.2805761 6 7 C11.88489457 7.5540567 11.88489457 7.5540567 17 5 C17.66 5.66 18.32 6.32 19 7 C21.19291082 7.45662153 23.40585889 7.820412 25.625 8.125 C27.40777344 8.37636719 27.40777344 8.37636719 29.2265625 8.6328125 C30.14179687 8.75398438 31.05703125 8.87515625 32 9 C32 9.33 32 9.66 32 10 C28.37 10 24.74 10 21 10 C20.7525 10.9075 20.505 11.815 20.25 12.75 C18.96018658 16.10351489 17.68028958 17.67708236 15 20 C15 16.7 15 13.4 15 10 C11.7 10 8.4 10 5 10 C4.87882812 10.71285156 4.75765625 11.42570312 4.6328125 12.16015625 C3.68936031 17.55234841 2.62637791 22.77235672 1 28 C0.01 27.34 -0.98 26.68 -2 26 C-1.34 25.01 -0.68 24.02 0 23 C-0.66 22.67 -1.32 22.34 -2 22 C-1.34 21.34 -0.68 20.68 0 20 C0.33 17.03 0.66 14.06 1 11 C-5.27 10.67 -11.54 10.34 -18 10 C-18 9.67 -18 9.34 -18 9 C-15.06281233 8.80538512 -12.12550068 8.61902407 -9.1875 8.4375 C-8.35412109 8.38142578 -7.52074219 8.32535156 -6.66210938 8.26757812 C-5.85966797 8.21923828 -5.05722656 8.17089844 -4.23046875 8.12109375 C-3.49207764 8.0739624 -2.75368652 8.02683105 -1.99291992 7.97827148 C0 8 0 8 3 9 C2.81171228 6.55519921 2.81171228 6.55519921 2 4 C0.03241727 2.63979849 0.03241727 2.63979849 -2 2 C-1.34 2 -0.68 2 0 2 C0 1.34 0 0.68 0 0 Z " fill="#D2E4F2" transform="translate(45,34)"/>
<path d="M0 0 C1.5778125 0.00966797 1.5778125 0.00966797 3.1875 0.01953125 C6 0.1875 6 0.1875 9 1.1875 C9.99 0.8575 10.98 0.5275 12 0.1875 C14.06145107 0.118509 16.12501401 0.10282273 18.1875 0.125 C19.81751953 0.13853516 19.81751953 0.13853516 21.48046875 0.15234375 C22.31191406 0.16394531 23.14335938 0.17554687 24 0.1875 C24 1.5075 24 2.8275 24 4.1875 C22.75863281 4.17589844 21.51726563 4.16429687 20.23828125 4.15234375 C18.59635568 4.14296132 16.95442847 4.1338616 15.3125 4.125 C14.49587891 4.11662109 13.67925781 4.10824219 12.83789062 4.09960938 C12.04189453 4.09638672 11.24589844 4.09316406 10.42578125 4.08984375 C9.69786377 4.08460693 8.96994629 4.07937012 8.2199707 4.07397461 C5.5145566 4.1582456 5.5145566 4.1582456 1 5.1875 C4.63 5.5175 8.26 5.8475 12 6.1875 C11.67 7.5075 11.34 8.8275 11 10.1875 C4.04958914 10.45368595 -2.23514355 9.7995509 -9 8.1875 C-9.1875 5.3125 -9.1875 5.3125 -9 2.1875 C-5.52207183 -0.13111878 -4.09700748 -0.05522927 0 0 Z " fill="#F4F4F4" transform="translate(9,17.8125)"/>
<path d="M0 0 C1.12758089 3.38274266 0.81750262 4.76778223 0.0625 8.1875 C-0.13214844 9.08855469 -0.32679687 9.98960938 -0.52734375 10.91796875 C-0.68332031 11.60503906 -0.83929688 12.29210938 -1 13 C-0.01 13.33 0.98 13.66 2 14 C1.67 14.99 1.34 15.98 1 17 C-2.14737182 16.30058404 -5.02588876 15.23921302 -8 14 C-7.505 15.0828125 -7.505 15.0828125 -7 16.1875 C-5.97916828 19.05858922 -5.67403105 20.98478721 -6 24 C-8 26 -8 26 -10.5 26.3125 C-11.325 26.209375 -12.15 26.10625 -13 26 C-15.58675384 22.11986924 -14.79830401 20.47050246 -14 16 C-14 15.01 -14 14.02 -14 13 C-12.989375 13.0825 -11.97875 13.165 -10.9375 13.25 C-8.93546413 13.11896957 -8.93546413 13.11896957 -7 12 C-4.21296819 8.22836043 -2.08163065 4.19489703 0 0 Z " fill="#F9FBFD" transform="translate(66,51)"/>
<path d="M0 0 C-0.59167969 0.27585937 -1.18335938 0.55171875 -1.79296875 0.8359375 C-3.97953287 1.90096528 -3.97953287 1.90096528 -5.61328125 3.2890625 C-12.05461973 8.35328724 -19.15312469 7.79045124 -27 7 C-30.45478486 6.25576238 -33.71467463 5.29866979 -37 4 C-37 3.67 -37 3.34 -37 3 C-36.39414062 3.0721875 -35.78828125 3.144375 -35.1640625 3.21875 C-29.08165405 3.8924937 -23.11697862 4.11713363 -17 4 C-16.67 3.01 -16.34 2.02 -16 1 C-21.94 1 -27.88 1 -34 1 C-34 0.67 -34 0.34 -34 0 C-21.88154938 -2.29655917 -12.15474234 -2.10406668 0 0 Z " fill="#232323" transform="translate(37,23)"/>
<path d="M0 0 C1.98 0 3.96 0 6 0 C6 9.9 6 19.8 6 30 C4.35 30 2.7 30 1 30 C1 29.01 1 28.02 1 27 C0.93270629 24.93340299 0.85885509 22.86701674 0.78125 20.80078125 C0.73613281 19.59228516 0.69101562 18.38378906 0.64453125 17.13867188 C0.59683594 15.87603516 0.54914062 14.61339844 0.5 13.3125 C0.45230469 12.03826172 0.40460937 10.76402344 0.35546875 9.45117188 C0.23747588 6.30076228 0.11896558 3.15037299 0 0 Z " fill="#275FA7" transform="translate(59,5)"/>
<path d="M0 0 C5.75 -0.125 5.75 -0.125 8 1 C8.40729228 3.32156597 8.74438677 5.6568787 9 8 C8.43410156 8.15855469 7.86820313 8.31710938 7.28515625 8.48046875 C5.06779058 9.18581705 3.04806871 9.89153152 1 11 C-0.13440778 13.57080135 -0.13440778 13.57080135 0 16 C-1.98 16 -3.96 16 -6 16 C-5.67 15.34 -5.34 14.68 -5 14 C-4.34 14 -3.68 14 -3 14 C-2.67 12.35 -2.34 10.7 -2 9 C-3.32 9.33 -4.64 9.66 -6 10 C-6 9.34 -6 8.68 -6 8 C-6.99 8 -7.98 8 -9 8 C-9 7.34 -9 6.68 -9 6 C-5.535 5.505 -5.535 5.505 -2 5 C-1.34 3.35 -0.68 1.7 0 0 Z " fill="#FAFAFA" transform="translate(112,59)"/>
<path d="M0 0 C2.27076842 -0.02699725 4.54162821 -0.04639453 6.8125 -0.0625 C8.07707031 -0.07410156 9.34164062 -0.08570313 10.64453125 -0.09765625 C14 0 14 0 17 1 C16.43454163 4.95820859 15.19097652 7.6659053 13 11 C16.36720387 9.60667426 17.9859524 8.0210714 20 5 C22 8 22 8 22 13 C16.06 13.495 16.06 13.495 10 14 C10 11.69 10 9.38 10 7 C6.41672247 5.99782936 6.41672247 5.99782936 3 7 C3 6.34 3 5.68 3 5 C1.68 4.67 0.36 4.34 -1 4 C1.97 4 4.94 4 8 4 C8 3.01 8 2.02 8 1 C5.36 1 2.72 1 0 1 C0 0.67 0 0.34 0 0 Z " fill="#ECF6FA" transform="translate(100,43)"/>
<path d="M0 0 C3.3 0 6.6 0 10 0 C9.35587386 2.77124036 8.70977252 5.54199445 8.0625 8.3125 C7.88009766 9.09818359 7.69769531 9.88386719 7.50976562 10.69335938 C7.33251953 11.45068359 7.15527344 12.20800781 6.97265625 12.98828125 C6.81031494 13.68477783 6.64797363 14.38127441 6.48071289 15.09887695 C6.06234435 16.7534406 5.53968631 18.38094108 5 20 C2.36 20 -0.28 20 -3 20 C-2.69106068 18.3743193 -2.3777305 16.74947252 -2.0625 15.125 C-1.80146484 13.76761719 -1.80146484 13.76761719 -1.53515625 12.3828125 C-1 10 -1 10 0 8 C0.66 8 1.32 8 2 8 C2.33 8.33 2.66 8.66 3 9 C3.4640625 7.824375 3.4640625 7.824375 3.9375 6.625 C5 4 5 4 6 2 C4.02 2 2.04 2 0 2 C0 1.34 0 0.68 0 0 Z " fill="#2E61A1" transform="translate(67,44)"/>
<path d="M0 0 C3.14581423 -0.02888514 6.29159469 -0.04675923 9.4375 -0.0625 C10.33533203 -0.07087891 11.23316406 -0.07925781 12.15820312 -0.08789062 C13.01220703 -0.09111328 13.86621094 -0.09433594 14.74609375 -0.09765625 C15.93223267 -0.10551147 15.93223267 -0.10551147 17.14233398 -0.11352539 C19 0 19 0 20 1 C19.94921875 2.99609375 19.94921875 2.99609375 19.6875 5.4375 C19.60886719 6.24058594 19.53023437 7.04367188 19.44921875 7.87109375 C19 10 19 10 17 12 C14.3984375 12.1953125 14.3984375 12.1953125 11.375 12.125 C9.87066406 12.09792969 9.87066406 12.09792969 8.3359375 12.0703125 C7.56507812 12.04710937 6.79421875 12.02390625 6 12 C6.33 11.34 6.66 10.68 7 10 C8.32 10 9.64 10 11 10 C11.33 7.69 11.66 5.38 12 3 C10.35 3 8.7 3 7 3 C6.34 4.32 5.68 5.64 5 7 C5.33 5.02 5.66 3.04 6 1 C4.02 1.33 2.04 1.66 0 2 C0 1.34 0 0.68 0 0 Z " fill="#3760A2" transform="translate(27,44)"/>
<path d="M0 0 C0.94875 0.04125 1.8975 0.0825 2.875 0.125 C2.71 0.929375 2.545 1.73375 2.375 2.5625 C1.84308161 4.8534443 1.84308161 4.8534443 1.875 6.125 C2.865 6.455 3.855 6.785 4.875 7.125 C4.83375 6.34125 4.7925 5.5575 4.75 4.75 C4.875 2.125 4.875 2.125 6.875 0.125 C10 0 10 0 12.875 0.125 C12.545 0.785 12.215 1.445 11.875 2.125 C10.555 2.125 9.235 2.125 7.875 2.125 C8.803125 2.2178125 8.803125 2.2178125 9.75 2.3125 C11.875 3.125 11.875 3.125 13.125 5.5 C13.875 8.125 13.875 8.125 13.875 11.125 C7.125 11.25 7.125 11.25 4.875 10.125 C4.875 9.465 4.875 8.805 4.875 8.125 C3.781875 8.33125 2.68875 8.5375 1.5625 8.75 C-2.125 9.125 -2.125 9.125 -5.125 7.125 C-5.4375 4.625 -5.4375 4.625 -5.125 2.125 C-3.125 0.125 -3.125 0.125 0 0 Z " fill="#EAEAEA" transform="translate(107.125,67.875)"/>
<path d="M0 0 C2.97 0 5.94 0 9 0 C9 8.58 9 17.16 9 26 C8.67 26 8.34 26 8 26 C8 17.75 8 9.5 8 1 C6.02 1 4.04 1 2 1 C2 9.25 2 17.5 2 26 C2.99 26.33 3.98 26.66 5 27 C6.6875 30.5625 6.6875 30.5625 8 34 C12.14093698 34.20970559 12.14093698 34.20970559 16 33 C15.34 34.32 14.68 35.64 14 37 C10.56944865 37.30471946 8.60998766 37.38965767 5.6640625 35.5078125 C-2.94643222 25.44574013 -0.71589489 12.47446838 0 0 Z " fill="#94AECA" transform="translate(44,4)"/>
<path d="M0 0 C1.32 0 2.64 0 4 0 C4 9.9 4 19.8 4 30 C3.34 30 2.68 30 2 30 C-0.36008817 26.45986775 -0.23463644 24.98878045 -0.1953125 20.80078125 C-0.18886719 19.59228516 -0.18242188 18.38378906 -0.17578125 17.13867188 C-0.15064453 15.2447168 -0.15064453 15.2447168 -0.125 13.3125 C-0.11597656 12.03826172 -0.10695312 10.76402344 -0.09765625 9.45117188 C-0.07405641 6.30059373 -0.04113194 3.15039017 0 0 Z " fill="#020308" transform="translate(53,3)"/>
<path d="M0 0 C-0.33 4.29 -0.66 8.58 -1 13 C-1.99 12.67 -2.98 12.34 -4 12 C-4 12.66 -4 13.32 -4 14 C-5.65 14 -7.3 14 -9 14 C-9 10.37 -9 6.74 -9 3 C-10.32 2.34 -11.64 1.68 -13 1 C-12.38125 0.855625 -11.7625 0.71125 -11.125 0.5625 C-6.82532643 -0.57564889 -4.6227599 -0.77045998 0 0 Z " fill="#FBFBFB" transform="translate(91,65)"/>
<path d="M0 0 C2.125 0.375 2.125 0.375 4 1 C4 2.98 4 4.96 4 7 C3.34 7 2.68 7 2 7 C2.185625 7.70125 2.37125 8.4025 2.5625 9.125 C3.05156976 12.33888698 2.66231558 14.83560336 2 18 C-0.31 18 -2.62 18 -5 18 C-5 15.69 -5 13.38 -5 11 C-4.01 11 -3.02 11 -2 11 C-2.02320313 10.37351562 -2.04640625 9.74703125 -2.0703125 9.1015625 C-2.08835938 8.28429688 -2.10640625 7.46703125 -2.125 6.625 C-2.14820313 5.81289063 -2.17140625 5.00078125 -2.1953125 4.1640625 C-2 2 -2 2 0 0 Z " fill="#2660A2" transform="translate(5,46)"/>
<path d="M0 0 C1.25393555 0.14985352 1.25393555 0.14985352 2.53320312 0.30273438 C4.58548523 0.54900823 6.63662019 0.80480898 8.6875 1.0625 C4.81959648 3.64110235 1.92136085 3.07364505 -2.5 2.6875 C-3.24958984 2.63078125 -3.99917969 2.5740625 -4.77148438 2.515625 C-6.61926559 2.37439331 -8.466012 2.21973833 -10.3125 2.0625 C-9.9825 3.3825 -9.6525 4.7025 -9.3125 6.0625 C-3.89750559 6.17771265 1.31665894 5.74451156 6.6875 5.0625 C2.10496941 8.1175204 -1.26081386 8.2485312 -6.6875 8.3125 C-7.99460937 8.33828125 -9.30171875 8.3640625 -10.6484375 8.390625 C-14.43377454 8.05163959 -16.28594322 7.28275401 -19.3125 5.0625 C-17.5 4 -17.5 4 -15.3125 3.0625 C-14.3225 3.3925 -13.3325 3.7225 -12.3125 4.0625 C-12.3125 3.4025 -12.3125 2.7425 -12.3125 2.0625 C-12.9725 2.0625 -13.6325 2.0625 -14.3125 2.0625 C-14.3125 1.4025 -14.3125 0.7425 -14.3125 0.0625 C-9.42600903 -1.36065318 -4.95371661 -0.6294778 0 0 Z " fill="#1B1B1B" transform="translate(113.3125,22.9375)"/>
<path d="M0 0 C0.99 0 1.98 0 3 0 C3.22245393 1.60226955 3.42746669 3.20696767 3.625 4.8125 C3.74101562 5.70582031 3.85703125 6.59914063 3.9765625 7.51953125 C4 10 4 10 2 13 C0.68 12.67 -0.64 12.34 -2 12 C-2 12.99 -2 13.98 -2 15 C-1.01 15 -0.02 15 1 15 C1 15.66 1 16.32 1 17 C0.01 17 -0.98 17 -2 17 C-2 18.65 -2 20.3 -2 22 C-2.99 22 -3.98 22 -5 22 C-5.33 17.71 -5.66 13.42 -6 9 C-4.35 9 -2.7 9 -1 9 C-0.67 6.03 -0.34 3.06 0 0 Z " fill="#F0F6F7" transform="translate(8,55)"/>
<path d="M0 0 C3.68802044 1.22934015 4.72356973 2.93859378 7 6 C7 4.02 7 2.04 7 0 C7.66 0 8.32 0 9 0 C8.96519531 1.15628906 8.96519531 1.15628906 8.9296875 2.3359375 C8.91164063 3.33882813 8.89359375 4.34171875 8.875 5.375 C8.85179688 6.37273437 8.82859375 7.37046875 8.8046875 8.3984375 C8.72783152 11.16262173 8.72783152 11.16262173 11 13 C6.38 13 1.76 13 -3 13 C-3 12.34 -3 11.68 -3 11 C-2.34 11 -1.68 11 -1 11 C-0.67 7.37 -0.34 3.74 0 0 Z " fill="#F3F3F3" transform="translate(90,66)"/>
<path d="M0 0 C4.62 0 9.24 0 14 0 C13.34 2.64 12.68 5.28 12 8 C10.02 8.33 8.04 8.66 6 9 C5.67 7.02 5.34 5.04 5 3 C3.68 3.33 2.36 3.66 1 4 C0.67 6.97 0.34 9.94 0 13 C-0.99 12.67 -1.98 12.34 -3 12 C-2.01 8.04 -1.02 4.08 0 0 Z " fill="#3C639F" transform="translate(3,44)"/>
<path d="M0 0 C1.93742341 -0.02703381 3.87495479 -0.04641125 5.8125 -0.0625 C6.89144531 -0.07410156 7.97039063 -0.08570312 9.08203125 -0.09765625 C12 0 12 0 15 1 C15.99 0.67 16.98 0.34 18 0 C20.06145107 -0.068991 22.12501401 -0.08467727 24.1875 -0.0625 C25.81751953 -0.04896484 25.81751953 -0.04896484 27.48046875 -0.03515625 C28.31191406 -0.02355469 29.14335938 -0.01195313 30 0 C30 1.32 30 2.64 30 4 C28.81664063 3.98839844 27.63328125 3.97679687 26.4140625 3.96484375 C18.20139628 3.90927062 10.16124606 3.94693599 2 5 C2.33 4.01 2.66 3.02 3 2 C2.01 1.34 1.02 0.68 0 0 Z " fill="#DCDCDC" transform="translate(3,18)"/>
<path d="M0 0 C1.65 0 3.3 0 5 0 C4.67 9.9 4.34 19.8 4 30 C3.34 30 2.68 30 2 30 C0.60439955 27.20879909 0.78191712 24.79794308 0.68359375 21.6796875 C0.64169922 20.42285156 0.59980469 19.16601562 0.55664062 17.87109375 C0.51732422 16.55238281 0.47800781 15.23367187 0.4375 13.875 C0.39430488 12.53514249 0.35069027 11.19529844 0.30664062 9.85546875 C0.20029019 6.57042185 0.09826192 3.28529719 0 0 Z " fill="#03070B" transform="translate(66,3)"/>
<path d="M0 0 C0.66 0.33 1.32 0.66 2 1 C2 3.66666667 2 6.33333333 2 9 C2.33 9 2.66 9 3 9 C2.67 11.64 2.34 14.28 2 17 C-0.64 17 -3.28 17 -6 17 C-5.34 14.36 -4.68 11.72 -4 9 C-3.34 9 -2.68 9 -2 9 C-1.855625 7.700625 -1.71125 6.40125 -1.5625 5.0625 C-1.125 1.125 -1.125 1.125 0 0 Z " fill="#2A5EA3" transform="translate(28,47)"/>
<path d="M0 0 C1.32 0.33 2.64 0.66 4 1 C4 8.26 4 15.52 4 23 C3.67 22.34 3.34 21.68 3 21 C2.01 21.33 1.02 21.66 0 22 C0 14.74 0 7.48 0 0 Z " fill="#2660AD" transform="translate(73,6)"/>
<path d="M0 0 C0.99 0.66 1.98 1.32 3 2 C5.21584546 2.44703234 7.44841961 2.81463242 9.6875 3.125 C11.45673828 3.37636719 11.45673828 3.37636719 13.26171875 3.6328125 C14.61716797 3.81457031 14.61716797 3.81457031 16 4 C16 4.33 16 4.66 16 5 C12.37 5 8.74 5 5 5 C4.7525 5.9075 4.505 6.815 4.25 7.75 C2.96018658 11.10351489 1.68028958 12.67708236 -1 15 C-1 11.37 -1 7.74 -1 4 C-4.3 4 -7.6 4 -11 4 C-11 3.67 -11 3.34 -11 3 C-10.37351563 2.95101562 -9.74703125 2.90203125 -9.1015625 2.8515625 C-8.28429688 2.77679688 -7.46703125 2.70203125 -6.625 2.625 C-5.81289063 2.55539063 -5.00078125 2.48578125 -4.1640625 2.4140625 C-1.79665809 2.17107412 -1.79665809 2.17107412 0 0 Z " fill="#E3EDF5" transform="translate(61,39)"/>
<path d="M0 0 C5.51437079 1.04160337 9.96151998 2.48075999 15 5 C18.73771834 5.7136724 18.73771834 5.7136724 22 6 C22 6.33 22 6.66 22 7 C17.05 7 12.1 7 7 7 C7 7.33 7 7.66 7 8 C4.36 7.67 1.72 7.34 -1 7 C-0.67 4.69 -0.34 2.38 0 0 Z " fill="#0B0B0B" transform="translate(79,27)"/>
<path d="M0 0 C8.23880597 -0.32309043 8.23880597 -0.32309043 12 2 C12.8125 4.625 12.8125 4.625 13 7 C8.545 8.485 8.545 8.485 4 10 C3.67 8.68 3.34 7.36 3 6 C2.34 6 1.68 6 1 6 C0.67 4.02 0.34 2.04 0 0 Z " fill="#FAFDF8" transform="translate(98,48)"/>
<path d="M0 0 C0 1.32 0 2.64 0 4 C-4.05308333 5.10789535 -8.07111374 5.33731267 -12.25 5.5625 C-13.36761719 5.62727539 -13.36761719 5.62727539 -14.5078125 5.69335938 C-16.338349 5.79896725 -18.16915176 5.89994201 -20 6 C-20.33 4.35 -20.66 2.7 -21 1 C-19.87980469 1.01160156 -18.75960937 1.02320312 -17.60546875 1.03515625 C-16.13281417 1.04453622 -14.66015778 1.0536362 -13.1875 1.0625 C-12.44951172 1.07087891 -11.71152344 1.07925781 -10.95117188 1.08789062 C-7.13201139 1.10517189 -3.67498296 0 0 0 Z " fill="#EBEBEB" transform="translate(124,24)"/>
<path d="M0 0 C3.79914689 -0.5936167 5.58290357 0.27278276 8.5625 2.4375 C13.66606286 5.90517995 18.9818545 5.88966733 25 6 C25 6.33 25 6.66 25 7 C22.36 7 19.72 7 17 7 C17 7.66 17 8.32 17 9 C10.37822074 8.69343615 5.77874846 7.25711277 0 4 C0 2.68 0 1.36 0 0 Z " fill="#DFDFDF" transform="translate(86,25)"/>
<path d="M0 0 C-1.04168592 3.02088917 -1.90587496 3.94308719 -4.6875 5.625 C-14.34954193 9.63565891 -14.34954193 9.63565891 -20 8 C-21.3921875 7.7215625 -21.3921875 7.7215625 -22.8125 7.4375 C-23.534375 7.293125 -24.25625 7.14875 -25 7 C-25 6.67 -25 6.34 -25 6 C-24.29875 5.98582031 -23.5975 5.97164062 -22.875 5.95703125 C-16.64723207 5.64395053 -12.8497368 4.70648641 -7.79296875 1.078125 C-5.18584253 -0.48955874 -2.95536234 -0.36942029 0 0 Z " fill="#E8E8E8" transform="translate(39,24)"/>
<path d="M0 0 C2.64 0 5.28 0 8 0 C8.19491452 1.45736087 8.38069358 2.91594593 8.5625 4.375 C8.66691406 5.18710938 8.77132812 5.99921875 8.87890625 6.8359375 C9 9 9 9 8 11 C5.07120629 10.37240135 2.63904371 9.41377341 0 8 C0 5.36 0 2.72 0 0 Z " fill="#B1B1B1" transform="translate(74,68)"/>
<path d="M0 0 C1.98 0 3.96 0 6 0 C6.05797565 3.93743833 6.09358789 7.87476719 6.125 11.8125 C6.14175781 12.93205078 6.15851563 14.05160156 6.17578125 15.20507812 C6.18222656 16.27822266 6.18867187 17.35136719 6.1953125 18.45703125 C6.20578613 19.44678955 6.21625977 20.43654785 6.22705078 21.45629883 C6 24 6 24 4 27 C3.34 27 2.68 27 2 27 C2 27.66 2 28.32 2 29 C1.34 29 0.68 29 0 29 C0 19.43 0 9.86 0 0 Z M1 1 C1 8.26 1 15.52 1 23 C1.99 22.67 2.98 22.34 4 22 C4.33 22.66 4.66 23.32 5 24 C5 16.74 5 9.48 5 2 C3.68 1.67 2.36 1.34 1 1 Z " fill="#335B93" transform="translate(72,5)"/>
<path d="M0 0 C1.65 0.33 3.3 0.66 5 1 C4.67 3.97 4.34 6.94 4 10 C2.68 10.33 1.36 10.66 0 11 C0.66 13.97 1.32 16.94 2 20 C-0.64 20 -3.28 20 -6 20 C-6.625 17.125 -6.625 17.125 -7 14 C-6.34 13.34 -5.68 12.68 -5 12 C-4.67 14.31 -4.34 16.62 -4 19 C-2.68 19 -1.36 19 0 19 C-0.350625 18.443125 -0.70125 17.88625 -1.0625 17.3125 C-2.21845993 14.46113217 -1.80967438 12.91482778 -1 10 C-0.01 9.67 0.98 9.34 2 9 C1.34 6.03 0.68 3.06 0 0 Z " fill="#3E6492" transform="translate(18,44)"/>
<path d="M0 0 C0.74507812 0.00902344 1.49015625 0.01804687 2.2578125 0.02734375 C4.08868059 0.05081642 5.91938238 0.08668475 7.75 0.125 C7.42 1.445 7.09 2.765 6.75 4.125 C5.70199219 4.11339844 4.65398438 4.10179687 3.57421875 4.08984375 C2.19531428 4.08046345 0.81640789 4.0713635 -0.5625 4.0625 C-1.25279297 4.05412109 -1.94308594 4.04574219 -2.65429688 4.03710938 C-5.7983025 4.02192094 -8.24420019 4.12306673 -11.25 5.125 C-12.97795352 5.19302967 -14.70835365 5.20995645 -16.4375 5.1875 C-17.78908203 5.17396484 -17.78908203 5.17396484 -19.16796875 5.16015625 C-19.85503906 5.14855469 -20.54210938 5.13695312 -21.25 5.125 C-21.25 4.795 -21.25 4.465 -21.25 4.125 C-20.64671875 4.00382812 -20.0434375 3.88265625 -19.421875 3.7578125 C-18.62265625 3.59023438 -17.8234375 3.42265625 -17 3.25 C-16.21109375 3.08757813 -15.4221875 2.92515625 -14.609375 2.7578125 C-12.26577172 2.24401272 -12.26577172 2.24401272 -10.46875 1.0625 C-7.06472906 -0.37581871 -3.62901798 -0.083352 0 0 Z " fill="#171717" transform="translate(29.25,14.875)"/>
<path d="M0 0 C0.33 0 0.66 0 1 0 C1 3.63 1 7.26 1 11 C-4.625 12.125 -4.625 12.125 -8 10 C-7.3125 7.125 -7.3125 7.125 -6 4 C-3.4375 2.75 -3.4375 2.75 -1 2 C-0.67 1.34 -0.34 0.68 0 0 Z " fill="#555555" transform="translate(129,65)"/>
<path d="M0 0 C2.875 -0.125 2.875 -0.125 6 0 C8 2 8 2 8.3125 4.5 C8.1578125 5.7375 8.1578125 5.7375 8 7 C5 9 5 9 2.375 8.6875 C0 8 0 8 -1 7 C-0.71269945 4.66055264 -0.38063221 2.3260857 0 0 Z " fill="#4B4B4B" transform="translate(14,68)"/>
<path d="M0 0 C1.4540625 0.0309375 1.4540625 0.0309375 2.9375 0.0625 C3.5625 3.4375 3.5625 3.4375 3.9375 7.0625 C1.9375 9.0625 1.9375 9.0625 -0.5625 9.375 C-1.8 9.2203125 -1.8 9.2203125 -3.0625 9.0625 C-5.0625 6.0625 -5.0625 6.0625 -4.75 3.4375 C-3.74055958 -0.0496578 -3.77085022 0.07695613 0 0 Z " fill="#B6B6B6" transform="translate(56.0625,67.9375)"/>
<path d="M0 0 C0.33 0 0.66 0 1 0 C1 3.96 1 7.92 1 12 C0.01 12 -0.98 12 -2 12 C-1.67 14.31 -1.34 16.62 -1 19 C-2.32 19 -3.64 19 -5 19 C-5.66 21.64 -6.32 24.28 -7 27 C-7.66 27 -8.32 27 -9 27 C-9.309375 25.906875 -9.61875 24.81375 -9.9375 23.6875 C-10.58337897 21.44592006 -11.2623117 19.2130649 -12 17 C-11.01 17 -10.02 17 -9 17 C-8.67 17.99 -8.34 18.98 -8 20 C-7.54625 19.505 -7.0925 19.01 -6.625 18.5 C-5 17 -5 17 -3 17 C-2.95101562 16.27554688 -2.90203125 15.55109375 -2.8515625 14.8046875 C-2.44793848 9.58541133 -1.98724193 4.90186342 0 0 Z " fill="#CED9E4" transform="translate(52,49)"/>
<path d="M0 0 C2.08351615 3.58727128 2.80141379 7.20694042 3.625 11.25 C3.88539063 12.51328125 4.14578125 13.7765625 4.4140625 15.078125 C4.60742188 16.04234375 4.80078125 17.0065625 5 18 C2.36 18 -0.28 18 -3 18 C-2.505 16.515 -2.505 16.515 -2 15 C-1.34 15 -0.68 15 0 15 C-0.144375 14.32453125 -0.28875 13.6490625 -0.4375 12.953125 C-0.623125 12.06109375 -0.80875 11.1690625 -1 10.25 C-1.185625 9.36828125 -1.37125 8.4865625 -1.5625 7.578125 C-2 5 -2 5 -2 1 C-1.34 0.67 -0.68 0.34 0 0 Z " fill="#3D669C" transform="translate(127,46)"/>
<path d="M0 0 C8.2056037 -0.29599372 15.92437827 0.56205146 24 2 C24 2.33 24 2.66 24 3 C15.97667603 3.90041311 8.07029553 4.11547323 0 4 C0 2.68 0 1.36 0 0 Z " fill="#D9D9D9" transform="translate(91,19)"/>
<path d="M0 0 C1.32 0.66 2.64 1.32 4 2 C4 3.32 4 4.64 4 6 C5.32 5.67 6.64 5.34 8 5 C8.33 5.99 8.66 6.98 9 8 C7 10 7 10 4.0625 10.375 C1 10 1 10 -0.875 8.25 C-2 6 -2 6 -2 2 C-1.34 2 -0.68 2 0 2 C0 1.34 0 0.68 0 0 Z " fill="#456BA7" transform="translate(51,29)"/>
<path d="M0 0 C4.62 0 9.24 0 14 0 C14 0.99 14 1.98 14 3 C10.37 3 6.74 3 3 3 C2.34 4.98 1.68 6.96 1 9 C0.34 8.34 -0.32 7.68 -1 7 C-0.625 3.375 -0.625 3.375 0 0 Z " fill="#2E5D9C" transform="translate(94,44)"/>
<path d="M0 0 C1.31225809 3.93677426 0.3393954 5.7794262 -0.9375 9.6875 C-1.31777344 10.86699219 -1.69804687 12.04648437 -2.08984375 13.26171875 C-2.54037109 14.61716797 -2.54037109 14.61716797 -3 16 C-4.32 16 -5.64 16 -7 16 C-7.33 14.35 -7.66 12.7 -8 11 C-7.01 10.67 -6.02 10.34 -5 10 C-4.30580103 7.92116373 -4.30580103 7.92116373 -4 5.5 C-3.625 3.03125 -3.625 3.03125 -3 1 C-2.01 0.67 -1.02 0.34 0 0 Z " fill="#DEF1FA" transform="translate(26,44)"/>
<path d="M0 0 C0.66 0 1.32 0 2 0 C1.979375 1.134375 1.95875 2.26875 1.9375 3.4375 C1.58422523 6.81575674 1.58422523 6.81575674 3 8 C3.66 6.35 4.32 4.7 5 3 C5.66 3.33 6.32 3.66 7 4 C6.01 7.3 5.02 10.6 4 14 C2.68 14 1.36 14 0 14 C-1.8759207 10.85909063 -2.18257272 8.92116258 -1.6875 5.3125 C-1.58824219 4.52488281 -1.48898438 3.73726562 -1.38671875 2.92578125 C-1 1 -1 1 0 0 Z " fill="#3E69A6" transform="translate(92,44)"/>
<path d="M0 0 C0.33 0.66 0.66 1.32 1 2 C1.66 2.33 2.32 2.66 3 3 C1.68 7.95 0.36 12.9 -1 18 C-2.32 18 -3.64 18 -5 18 C-4.35852041 15.18644068 -3.71204485 12.37419761 -3.0625 9.5625 C-2.88009766 8.76005859 -2.69769531 7.95761719 -2.50976562 7.13085938 C-1.11328125 1.11328125 -1.11328125 1.11328125 0 0 Z " fill="#3B68A0" transform="translate(50,46)"/>
<path d="M0 0 C1.65 0.33 3.3 0.66 5 1 C5 1.66 5 2.32 5 3 C4.21753906 3.20496094 3.43507813 3.40992188 2.62890625 3.62109375 C1.61699219 3.89050781 0.60507813 4.15992188 -0.4375 4.4375 C-1.44683594 4.70433594 -2.45617187 4.97117187 -3.49609375 5.24609375 C-5.91752001 5.75978077 -5.91752001 5.75978077 -7 7 C-7.66 7 -8.32 7 -9 7 C-9 7.66 -9 8.32 -9 9 C-9.99 8.67 -10.98 8.34 -12 8 C-10.56739143 5.41206193 -9.11158381 3.08545034 -7 1 C-3.1875 0.5625 -3.1875 0.5625 0 1 C0 0.67 0 0.34 0 0 Z " fill="#E1E1DF" transform="translate(85,33)"/>
<path d="M0 0 C0.99 0 1.98 0 3 0 C4.60725635 3.21451269 4.05748185 6.43612536 4 10 C3.67 10 3.34 10 3 10 C2.67 11.65 2.34 13.3 2 15 C2.66 15 3.32 15 4 15 C4 15.66 4 16.32 4 17 C2.68 17 1.36 17 0 17 C0 11.39 0 5.78 0 0 Z " fill="#2061AE" transform="translate(54,46)"/>
<path d="M0 0 C1.25393555 0.14985352 1.25393555 0.14985352 2.53320312 0.30273438 C4.58548523 0.54900823 6.63662019 0.80480898 8.6875 1.0625 C4.91464383 3.57773745 1.97675116 3.25197417 -2.375 3.125 C-7.49383459 2.76770276 -7.49383459 2.76770276 -12.3125 4.0625 C-12.3125 3.4025 -12.3125 2.7425 -12.3125 2.0625 C-12.9725 2.0625 -13.6325 2.0625 -14.3125 2.0625 C-14.3125 1.4025 -14.3125 0.7425 -14.3125 0.0625 C-9.42600903 -1.36065318 -4.95371661 -0.6294778 0 0 Z " fill="#2D2D2D" transform="translate(113.3125,22.9375)"/>
<path d="M0 0 C0.99 0.33 1.98 0.66 3 1 C3 4.96 3 8.92 3 13 C3.66 13 4.32 13 5 13 C5 13.66 5 14.32 5 15 C3.35 15 1.7 15 0 15 C0 10.05 0 5.1 0 0 Z " fill="#FBFBFB" transform="translate(0,64)"/>
<path d="M0 0 C1.5 1.1875 1.5 1.1875 3 3 C3 4.65 3 6.3 3 8 C-2.94 8.495 -2.94 8.495 -9 9 C-6 5 -6 5 -3.9375 4.5 C-1.78364885 4.18476569 -1.78364885 4.18476569 -0.75 1.9375 C-0.37875 0.9784375 -0.37875 0.9784375 0 0 Z " fill="#5475AD" transform="translate(119,48)"/>
<path d="M0 0 C1.4540625 0.0309375 1.4540625 0.0309375 2.9375 0.0625 C2.6075 0.7225 2.2775 1.3825 1.9375 2.0625 C0.6175 2.0625 -0.7025 2.0625 -2.0625 2.0625 C-0.7425 2.3925 0.5775 2.7225 1.9375 3.0625 C2.2675 4.7125 2.5975 6.3625 2.9375 8.0625 C-1.8125 9.1875 -1.8125 9.1875 -4.0625 8.0625 C-4.10491723 5.72955225 -4.10342937 3.39547433 -4.0625 1.0625 C-3.0625 0.0625 -3.0625 0.0625 0 0 Z " fill="#8F8F8F" transform="translate(117.0625,67.9375)"/>
<path d="M0 0 C2.64 0 5.28 0 8 0 C7.67 0.66 7.34 1.32 7 2 C5.68 1.67 4.36 1.34 3 1 C3 1.99 3 2.98 3 4 C3.99 4 4.98 4 6 4 C6 4.66 6 5.32 6 6 C5.01 6 4.02 6 3 6 C3 7.65 3 9.3 3 11 C2.01 11 1.02 11 0 11 C0 7.37 0 3.74 0 0 Z " fill="#6E6E6E" transform="translate(3,66)"/>
<path d="M0 0 C1.134375 0.020625 2.26875 0.04125 3.4375 0.0625 C3.1075 2.0425 2.7775 4.0225 2.4375 6.0625 C0.1275 6.0625 -2.1825 6.0625 -4.5625 6.0625 C-4.605221 4.39638095 -4.60313832 2.72867115 -4.5625 1.0625 C-3.5625 0.0625 -3.5625 0.0625 0 0 Z " fill="#6A88B3" transform="translate(80.5625,57.9375)"/>
<path d="M0 0 C3 1 3 1 5 4 C6.2375 4.185625 6.2375 4.185625 7.5 4.375 C8.7375 4.684375 8.7375 4.684375 10 5 C11.3125 7.5625 11.3125 7.5625 12 10 C11.01 10 10.02 10 9 10 C8.34 9.01 7.68 8.02 7 7 C2.3967621 5.85335975 2.3967621 5.85335975 -2 7 C-2.99 6.34 -3.98 5.68 -5 5 C-3.68 5 -2.36 5 -1 5 C-0.67 3.35 -0.34 1.7 0 0 Z " fill="#EAF1F6" transform="translate(84,59)"/>
<path d="M0 0 C0.33 0.99 0.66 1.98 1 3 C-3.95 3 -8.9 3 -14 3 C-6.16438356 -2.87671233 -6.16438356 -2.87671233 0 0 Z " fill="#CECECE" transform="translate(38,12)"/>
<path d="M0 0 C2.38438403 0.33505923 2.38438403 0.33505923 6.0703125 0.25390625 C6.0703125 0.91390625 6.0703125 1.57390625 6.0703125 2.25390625 C6.7303125 2.58390625 7.3903125 2.91390625 8.0703125 3.25390625 C5.96677755 3.33492685 3.86235298 3.39310532 1.7578125 3.44140625 C0.58605469 3.47621094 -0.58570312 3.51101562 -1.79296875 3.546875 C-4.9296875 3.25390625 -4.9296875 3.25390625 -6.84765625 1.7421875 C-7.20472656 1.25105469 -7.56179687 0.75992188 -7.9296875 0.25390625 C-5.16419177 -1.12884162 -2.96820206 -0.44579461 0 0 Z " fill="#F3F3F3" transform="translate(105.9296875,75.74609375)"/>
<path d="M0 0 C0.33 0.66 0.66 1.32 1 2 C2.98 2 4.96 2 7 2 C6.05066101 5.35433109 5.10251165 8.69246505 4 12 C3.896875 11.360625 3.79375 10.72125 3.6875 10.0625 C3.460625 9.381875 3.23375 8.70125 3 8 C2.01 7.67 1.02 7.34 0 7 C0.33 5.68 0.66 4.36 1 3 C0.34 2.67 -0.32 2.34 -1 2 C-0.67 1.34 -0.34 0.68 0 0 Z " fill="#366AB4" transform="translate(66,44)"/>
<path d="M0 0 C1.65 0 3.3 0 5 0 C4.67 2.31 4.34 4.62 4 7 C2.35 7 0.7 7 -1 7 C-0.67 4.69 -0.34 2.38 0 0 Z " fill="#CFE8F5" transform="translate(34,47)"/>
<path d="M0 0 C0 0.66 0 1.32 0 2 C1.32 2 2.64 2 4 2 C4 2.66 4 3.32 4 4 C4.99 4.33 5.98 4.66 7 5 C5.33388095 5.042721 3.66617115 5.04063832 2 5 C1.67 4.67 1.34 4.34 1 4 C-1.01964199 3.92755947 -3.04167124 3.91622812 -5.0625 3.9375 C-6.16722656 3.94652344 -7.27195312 3.95554688 -8.41015625 3.96484375 C-9.26480469 3.97644531 -10.11945312 3.98804688 -11 4 C-10 2 -10 2 -8.22265625 1.3671875 C-7.50980469 1.20476563 -6.79695313 1.04234375 -6.0625 0.875 C-5.35222656 0.70742188 -4.64195313 0.53984375 -3.91015625 0.3671875 C-2 0 -2 0 0 0 Z " fill="#2D2C2C" transform="translate(35,29)"/>
<path d="M0 0 C1.98 0 3.96 0 6 0 C6 7.59 6 15.18 6 23 C5.67 23 5.34 23 5 23 C5 16.4 5 9.8 5 3 C3.35 3 1.7 3 0 3 C0 2.01 0 1.02 0 0 Z " fill="#355C96" transform="translate(59,5)"/>
<path d="M0 0 C0.94875 0.04125 1.8975 0.0825 2.875 0.125 C2.545 1.775 2.215 3.425 1.875 5.125 C0.225 4.795 -1.425 4.465 -3.125 4.125 C-2.795 5.445 -2.465 6.765 -2.125 8.125 C-3.115 7.795 -4.105 7.465 -5.125 7.125 C-5.25 4.75 -5.25 4.75 -5.125 2.125 C-3.125 0.125 -3.125 0.125 0 0 Z " fill="#C4C4C4" transform="translate(107.125,67.875)"/>
<path d="M0 0 C2.31 0 4.62 0 7 0 C7 2.64 7 5.28 7 8 C5.68 7.01 4.36 6.02 3 5 C2.34 5.99 1.68 6.98 1 8 C0.67 5.36 0.34 2.72 0 0 Z " fill="#666666" transform="translate(25,68)"/>
<path d="M0 0 C1.16835309 3.50505927 0.75193262 4.66433282 -0.3125 8.125 C-0.57675781 9.01445313 -0.84101562 9.90390625 -1.11328125 10.8203125 C-2 13 -2 13 -4 14 C-4.66666667 12.66666667 -5.33333333 11.33333333 -6 10 C-4.78515625 7.6171875 -4.78515625 7.6171875 -3.0625 4.875 C-2.21365234 3.50988281 -2.21365234 3.50988281 -1.34765625 2.1171875 C-0.90292969 1.41851562 -0.45820312 0.71984375 0 0 Z " fill="#D1E7F6" transform="translate(66,51)"/>
<path d="M0 0 C-0.99766109 2.49415272 -1.68616685 3.78740335 -3.9375 5.3125 C-6 6 -6 6 -9 5 C-8.625 3.0625 -8.625 3.0625 -8 1 C-5.29120665 -0.35439668 -2.99066732 -0.06501451 0 0 Z " fill="#EFF0EF" transform="translate(39,24)"/>
<path d="M0 0 C0.33 0 0.66 0 1 0 C1.33 3.63 1.66 7.26 2 11 C2.66 11 3.32 11 4 11 C4.33 12.32 4.66 13.64 5 15 C4.01 15.33 3.02 15.66 2 16 C2 16.66 2 17.32 2 18 C1.34 18 0.68 18 0 18 C0 12.06 0 6.12 0 0 Z " fill="#2A5C9C" transform="translate(72,16)"/>
<path d="M0 0 C0.66 0.33 1.32 0.66 2 1 C1.69024532 2.77131561 1.37709575 4.54203778 1.0625 6.3125 C0.88847656 7.29863281 0.71445313 8.28476562 0.53515625 9.30078125 C0 12 0 12 -1 15 C-3.64 15 -6.28 15 -9 15 C-8.67 14.01 -8.34 13.02 -8 12 C-8 12.66 -8 13.32 -8 14 C-6.02 14 -4.04 14 -2 14 C-1.93941406 13.07316406 -1.87882812 12.14632812 -1.81640625 11.19140625 C-1.73261719 9.99386719 -1.64882812 8.79632813 -1.5625 7.5625 C-1.48128906 6.36753906 -1.40007812 5.17257813 -1.31640625 3.94140625 C-1 1 -1 1 0 0 Z " fill="#466D9F" transform="translate(73,49)"/>
<path d="M0 0 C2 3 2 3 1.828125 5.33984375 C1.63734375 6.19707031 1.4465625 7.05429687 1.25 7.9375 C0.97929688 9.21947266 0.97929688 9.21947266 0.703125 10.52734375 C0.03380796 12.88110869 -0.82767458 14.85901587 -2 17 C-2.66 16.34 -3.32 15.68 -4 15 C-3.34 14.01 -2.68 13.02 -2 12 C-2.66 11.67 -3.32 11.34 -4 11 C-3.34 10.34 -2.68 9.68 -2 9 C-1.32348793 6.80295489 -1.32348793 6.80295489 -0.875 4.375 C-0.70742188 3.55773438 -0.53984375 2.74046875 -0.3671875 1.8984375 C-0.24601562 1.27195313 -0.12484375 0.64546875 0 0 Z " fill="#D4EDF9" transform="translate(47,45)"/>
<path d="M0 0 C3.3 0 6.6 0 10 0 C9.67 1.98 9.34 3.96 9 6 C7.35 6.33 5.7 6.66 4 7 C4.66 5.35 5.32 3.7 6 2 C4.02 2 2.04 2 0 2 C0 1.34 0 0.68 0 0 Z " fill="#396296" transform="translate(67,44)"/>
<path d="M0 0 C3.68802044 1.22934015 4.72356973 2.93859378 7 6 C7 4.02 7 2.04 7 0 C7.66 0 8.32 0 9 0 C9 3.3 9 6.6 9 10 C4.42730974 7.71365487 3.0047845 6.00637934 0 2 C0 1.34 0 0.68 0 0 Z " fill="#2F2F2F" transform="translate(90,66)"/>
<path d="M0 0 C1.32 0.33 2.64 0.66 4 1 C3.37806106 2.75109022 2.75232002 4.50083031 2.125 6.25 C1.77695313 7.22453125 1.42890625 8.1990625 1.0703125 9.203125 C0.16725355 11.56294327 -0.82078418 13.76905116 -2 16 C-3.1771611 12.46851671 -2.71692656 11.44788734 -1.5625 8 C-0.59566887 5.08649992 0 3.09134934 0 0 Z " fill="#E5F5FB" transform="translate(89,42)"/>
<path d="M0 0 C1.65 0 3.3 0 5 0 C5.33 2.97 5.66 5.94 6 9 C5.01 9 4.02 9 3 9 C1.875 6.6875 1.875 6.6875 1 4 C1.66 3.01 2.32 2.02 3 1 C2.01 0.67 1.02 0.34 0 0 Z " fill="#8C8C8C" transform="translate(77,68)"/>
<path d="M0 0 C2.475 0.495 2.475 0.495 5 1 C5 2.65 5 4.3 5 6 C3.0625 6.5625 3.0625 6.5625 1 7 C0 6 0 6 -0.0625 2.9375 C-0.041875 1.968125 -0.02125 0.99875 0 0 Z " fill="#F2F2F2" transform="translate(15,69)"/>
<path d="M0 0 C1.32 0.99 2.64 1.98 4 3 C2.65827124 5.68345751 0.99819916 7.76671858 -1 10 C-1.99 10 -2.98 10 -4 10 C-2.66666667 6.66666667 -1.33333333 3.33333333 0 0 Z " fill="#4B6EA1" transform="translate(117,44)"/>
<path d="M0 0 C3.96 0 7.92 0 12 0 C12 0.99 12 1.98 12 3 C10.35 3 8.7 3 7 3 C6.34 4.32 5.68 5.64 5 7 C5.33 5.02 5.66 3.04 6 1 C4.02 1.33 2.04 1.66 0 2 C0 1.34 0 0.68 0 0 Z " fill="#355B90" transform="translate(27,44)"/>
<path d="M0 0 C2.27076842 -0.02699725 4.54162821 -0.04639453 6.8125 -0.0625 C8.07707031 -0.07410156 9.34164062 -0.08570313 10.64453125 -0.09765625 C14 0 14 0 17 1 C16.67 2.65 16.34 4.3 16 6 C15.67 4.68 15.34 3.36 15 2 C12.69 2.66 10.38 3.32 8 4 C8 3.01 8 2.02 8 1 C5.36 1 2.72 1 0 1 C0 0.67 0 0.34 0 0 Z " fill="#E1EFF6" transform="translate(100,43)"/>
<path d="M0 0 C1.65 0 3.3 0 5 0 C5 0.66 5 1.32 5 2 C5.99 2.33 6.98 2.66 8 3 C8 3.66 8 4.32 8 5 C5.69 5 3.38 5 1 5 C0.67 3.35 0.34 1.7 0 0 Z " fill="#DFDFDF" transform="translate(103,25)"/>
<path d="M0 0 C1.32 0 2.64 0 4 0 C4 1.98 4 3.96 4 6 C3.01 6.33 2.02 6.66 1 7 C0.34 6.67 -0.32 6.34 -1 6 C-1.042721 4.33388095 -1.04063832 2.66617115 -1 1 C-0.67 0.67 -0.34 0.34 0 0 Z " fill="#EFEFEF" transform="translate(125,69)"/>
<path d="M0 0 C0.33 0 0.66 0 1 0 C1 2.31 1 4.62 1 7 C-2.63 7 -6.26 7 -10 7 C-7.62216162 4.62216162 -6.27926335 4.40990792 -3 4 C-2.34 4.33 -1.68 4.66 -1 5 C-0.67 3.35 -0.34 1.7 0 0 Z " fill="#F8F8F8" transform="translate(132,72)"/>
<path d="M0 0 C2.62374802 5.24749603 3.09534716 8.08847633 3 14 C2.34 13.67 1.68 13.34 1 13 C0.33203125 10.8203125 0.33203125 10.8203125 -0.1875 8.125 C-0.45626953 6.79855469 -0.45626953 6.79855469 -0.73046875 5.4453125 C-1 3 -1 3 0 0 Z " fill="#E4F4F8" transform="translate(130,50)"/>
<path d="M0 0 C0.33 0.99 0.66 1.98 1 3 C-1 5 -1 5 -4.125 5.125 C-5.548125 5.063125 -5.548125 5.063125 -7 5 C-7 3.68 -7 2.36 -7 1 C-2.25 0 -2.25 0 0 0 Z " fill="#2E5A97" transform="translate(59,34)"/>
<path d="M0 0 C2.19050021 0.09017996 4.378466 0.24666208 6.5625 0.4375 C7.76003906 0.53933594 8.95757812 0.64117188 10.19140625 0.74609375 C11.11824219 0.82988281 12.04507813 0.91367187 13 1 C13 1.33 13 1.66 13 2 C10.36 2 7.72 2 5 2 C5 2.66 5 3.32 5 4 C3.54077307 3.88590407 2.08259402 3.75834456 0.625 3.625 C-0.59316406 3.52058594 -0.59316406 3.52058594 -1.8359375 3.4140625 C-4 3 -4 3 -6 1 C-4.7934375 1.0309375 -4.7934375 1.0309375 -3.5625 1.0625 C-1.06645115 1.29633621 -1.06645115 1.29633621 0 0 Z " fill="#B3B6B6" transform="translate(98,30)"/>
<path d="M0 0 C3.96 0 7.92 0 12 0 C12 0.33 12 0.66 12 1 C10.35 1.33 8.7 1.66 7 2 C8.32 2.66 9.64 3.32 11 4 C6.545 4.495 6.545 4.495 2 5 C2.33 4.01 2.66 3.02 3 2 C2.01 1.34 1.02 0.68 0 0 Z " fill="#D0D0D0" transform="translate(3,18)"/>
<path d="M0 0 C2.31 0 4.62 0 7 0 C7 1.32 7 2.64 7 4 C4.69 4 2.38 4 0 4 C0 2.68 0 1.36 0 0 Z " fill="#F3F1F3" transform="translate(26,18)"/>
<path d="M0 0 C1.98 0.66 3.96 1.32 6 2 C5.6875 4.375 5.6875 4.375 5 7 C4.01 7.66 3.02 8.32 2 9 C1.87625 8.030625 1.7525 7.06125 1.625 6.0625 C1.41875 5.051875 1.2125 4.04125 1 3 C0.34 2.67 -0.32 2.34 -1 2 C-0.67 1.34 -0.34 0.68 0 0 Z " fill="#EEEEEE" transform="translate(58,65)"/>
<path d="M0 0 C2 2 2 2 2.125 4.625 C2.08375 5.40875 2.0425 6.1925 2 7 C3.32 7 4.64 7 6 7 C6 5.35 6 3.7 6 2 C8 5.75 8 5.75 8 8 C5.36 8 2.72 8 0 8 C-1.125 2.25 -1.125 2.25 0 0 Z " fill="#4F70A9" transform="translate(12,56)"/>
<path d="M0 0 C0.99 0.33 1.98 0.66 3 1 C2.67 2.98 2.34 4.96 2 7 C-0.475 6.01 -0.475 6.01 -3 5 C-2.625 3.0625 -2.625 3.0625 -2 1 C-1.34 0.67 -0.68 0.34 0 0 Z " fill="#FCFCFC" transform="translate(48,69)"/>
<path d="M0 0 C0.33 0 0.66 0 1 0 C1 1.65 1 3.3 1 5 C1.99 5 2.98 5 4 5 C4.1546875 4.0409375 4.1546875 4.0409375 4.3125 3.0625 C4.539375 2.381875 4.76625 1.70125 5 1 C5.99 0.67 6.98 0.34 8 0 C7.67 1.98 7.34 3.96 7 6 C4.36 6 1.72 6 -1 6 C-0.67 4.02 -0.34 2.04 0 0 Z " fill="#4A6EA5" transform="translate(23,58)"/>
<path d="M0 0 C0.33 0.66 0.66 1.32 1 2 C0.67 2.66 0.34 3.32 0 4 C0.66 4 1.32 4 2 4 C1.67 5.98 1.34 7.96 1 10 C-0.32 10 -1.64 10 -3 10 C-2.69201674 8.51988629 -2.378482 7.04092675 -2.0625 5.5625 C-1.88847656 4.73878906 -1.71445312 3.91507813 -1.53515625 3.06640625 C-1 1 -1 1 0 0 Z " fill="#4E6F9C" transform="translate(48,54)"/>
<path d="M0 0 C-2.475 3.465 -2.475 3.465 -5 7 C-5.66 6.67 -6.32 6.34 -7 6 C-6.67 4.02 -6.34 2.04 -6 0 C-3 -1 -3 -1 0 0 Z " fill="#DEF4FC" transform="translate(111,56)"/>
<path d="M0 0 C0.66 0 1.32 0 2 0 C1.43454163 3.95820859 0.19097652 6.6659053 -2 10 C-2.66 8.68 -3.32 7.36 -4 6 C-2.7260411 3.96166576 -1.38938077 1.96147874 0 0 Z " fill="#396699" transform="translate(65,47)"/>
<path d="M0 0 C1.98 0 3.96 0 6 0 C5.67 1.65 5.34 3.3 5 5 C3.35 5 1.7 5 0 5 C0 3.35 0 1.7 0 0 Z " fill="#CCE9F9" transform="translate(10,47)"/>
<path d="M0 0 C1.98 0 3.96 0 6 0 C5.67 1.32 5.34 2.64 5 4 C3.02 4.33 1.04 4.66 -1 5 C-0.67 3.35 -0.34 1.7 0 0 Z " fill="#F9FCFC" transform="translate(12,64)"/>
<path d="M0 0 C0.99 0.495 0.99 0.495 2 1 C1.01 1.495 1.01 1.495 0 2 C0 1.34 0 0.68 0 0 Z M-9 3 C-7.8553125 3.2784375 -7.8553125 3.2784375 -6.6875 3.5625 C-3.91032625 4.22819173 -3.91032625 4.22819173 -1 3 C-1 3.66 -1 4.32 -1 5 C-0.34 5.33 0.32 5.66 1 6 C-1.8125 6.625 -1.8125 6.625 -5 7 C-8 5 -8 5 -9 3 Z " fill="#FCFDFC" transform="translate(32,62)"/>
<path d="M0 0 C1.98362069 2.91708924 1.9876191 4.12380904 1.625 7.75 C1.41875 8.8225 1.2125 9.895 1 11 C0.34 11 -0.32 11 -1 11 C-1.33 7.7 -1.66 4.4 -2 1 C-1.34 0.67 -0.68 0.34 0 0 Z " fill="#3C6DB1" transform="translate(127,46)"/>
<path d="M0 0 C0.99 0.33 1.98 0.66 3 1 C3 3.64 3 6.28 3 9 C2.01 8.67 1.02 8.34 0 8 C-1.09658936 4.71023192 -0.79953138 3.28696233 0 0 Z " fill="#235F9F" transform="translate(47,7)"/>
<path d="M0 0 C0.66 0 1.32 0 2 0 C1.91253716 1.43861294 1.80434652 2.87597508 1.6875 4.3125 C1.62949219 5.11300781 1.57148437 5.91351563 1.51171875 6.73828125 C0.91793306 9.36272334 0.04219706 10.30820672 -2 12 C-1 3.42857143 -1 3.42857143 0 0 Z " fill="#4D73A4" transform="translate(89,50)"/>
<path d="M0 0 C0.33 0.99 0.66 1.98 1 3 C-1.97 3 -4.94 3 -8 3 C-8 2.34 -8 1.68 -8 1 C-5.29120665 -0.35439668 -2.99066732 -0.06501451 0 0 Z " fill="#EBEBEB" transform="translate(93,13)"/>
<path d="M0 0 C0.99 0.99 1.98 1.98 3 3 C2.75 5.4375 2.75 5.4375 2 8 C1.814375 8.763125 1.62875 9.52625 1.4375 10.3125 C1.293125 10.869375 1.14875 11.42625 1 12 C0.34 11.67 -0.32 11.34 -1 11 C-0.67 7.37 -0.34 3.74 0 0 Z " fill="#D2D2D2" transform="translate(130,65)"/>
<path d="M0 0 C0 0.99 0 1.98 0 3 C-2.31 3 -4.62 3 -7 3 C-7 2.01 -7 1.02 -7 0 C-3.98968256 -0.93423645 -3.13349732 -1.04449911 0 0 Z " fill="#4870AC" transform="translate(7,61)"/>
<path d="M0 0 C0.66 0.33 1.32 0.66 2 1 C2 2.98 2 4.96 2 7 C0.35 7 -1.3 7 -3 7 C-1.125 2.25 -1.125 2.25 0 0 Z " fill="#D4EFF8" transform="translate(119,48)"/>
<path d="M0 0 C0.66 0.33 1.32 0.66 2 1 C2.125 6.75 2.125 6.75 1 9 C0.34 9 -0.32 9 -1 9 C-1.09765625 2.84765625 -1.09765625 2.84765625 -1 1 C-0.67 0.67 -0.34 0.34 0 0 Z " fill="#2161A8" transform="translate(28,47)"/>
<path d="M0 0 C5.94 0.99 5.94 0.99 12 2 C12 2.33 12 2.66 12 3 C7.38 3 2.76 3 -2 3 C-1.34 2.01 -0.68 1.02 0 0 Z " fill="#131714" transform="translate(89,31)"/>
<path d="M0 0 C3.465 1.98 3.465 1.98 7 4 C6.67 4.66 6.34 5.32 6 6 C3.03 5.505 3.03 5.505 0 5 C-0.5625 3.0625 -0.5625 3.0625 -1 1 C-0.67 0.67 -0.34 0.34 0 0 Z " fill="#F6F6F6" transform="translate(91,26)"/>
<path d="M0 0 C0.99 0.33 1.98 0.66 3 1 C2.34 2.65 1.68 4.3 1 6 C-0.65 6 -2.3 6 -4 6 C-2.68 4.02 -1.36 2.04 0 0 Z " fill="#4B6B96" transform="translate(109,58)"/>
<path d="M0 0 C1.98 0 3.96 0 6 0 C5.67 1.32 5.34 2.64 5 4 C3.35 4 1.7 4 0 4 C0 2.68 0 1.36 0 0 Z " fill="#336095" transform="translate(78,59)"/>
<path d="M0 0 C0.33 0.66 0.66 1.32 1 2 C-2.63 2 -6.26 2 -10 2 C-9 0 -9 0 -7.25 -0.6875 C-4.56103961 -1.06096672 -2.59598075 -0.77177806 0 0 Z " fill="#315D8C" transform="translate(43,54)"/>
<path d="M0 0 C0.99 0 1.98 0 3 0 C2.34 3.96 1.68 7.92 1 12 C0.67 12 0.34 12 0 12 C0 8.04 0 4.08 0 0 Z " fill="#DAF4F9" transform="translate(0,44)"/>
<path d="M0 0 C0.99 0.33 1.98 0.66 3 1 C0.25 4.875 0.25 4.875 -2 6 C-2 6.66 -2 7.32 -2 8 C-2.99 7.67 -3.98 7.34 -5 7 C-3.35 4.69 -1.7 2.38 0 0 Z " fill="#EAE6E2" transform="translate(78,34)"/>
<path d="M0 0 C2.0625 0.4375 2.0625 0.4375 4 1 C3.67 1.99 3.34 2.98 3 4 C-0.63 3.67 -4.26 3.34 -8 3 C-8 2.67 -8 2.34 -8 2 C-6.865625 1.855625 -5.73125 1.71125 -4.5625 1.5625 C-1.19222799 1.38828522 -1.19222799 1.38828522 0 0 Z " fill="#343434" transform="translate(33,15)"/>
<path d="M0 0 C1.32 1.32 2.64 2.64 4 4 C3.34 5.65 2.68 7.3 2 9 C1.34 9 0.68 9 0 9 C0 6.03 0 3.06 0 0 Z " fill="#B6B6B6" transform="translate(90,68)"/>
<path d="M0 0 C0.99 0 1.98 0 3 0 C4.60355101 3.50776784 5.22036864 6.14354879 5 10 C4.34 10 3.68 10 3 10 C2.690625 8.906875 2.38125 7.81375 2.0625 6.6875 C1.41662103 4.44592006 0.7376883 2.2130649 0 0 Z " fill="#393939" transform="translate(40,66)"/>
<path d="M0 0 C0.99 0 1.98 0 3 0 C3 3.3 3 6.6 3 10 C2.01 10.495 2.01 10.495 1 11 C0.67 7.37 0.34 3.74 0 0 Z " fill="#2D5D9A" transform="translate(57,46)"/>
<path d="M0 0 C3.3 0 6.6 0 10 0 C10.33 1.65 10.66 3.3 11 5 C10.67 4.34 10.34 3.68 10 3 C7.65092125 2.31068656 7.65092125 2.31068656 4.9375 1.875 C4.01839844 1.70742188 3.09929687 1.53984375 2.15234375 1.3671875 C1.44207031 1.24601562 0.73179688 1.12484375 0 1 C0 0.67 0 0.34 0 0 Z " fill="#C3E0F5" transform="translate(112,58)"/>
<path d="M0 0 C2.97 0 5.94 0 9 0 C9 0.99 9 1.98 9 3 C6.03 2.67 3.06 2.34 0 2 C0 1.34 0 0.68 0 0 Z " fill="#335E92" transform="translate(118,44)"/>
<path d="M0 0 C2.97 0 5.94 0 9 0 C8.67 0.66 8.34 1.32 8 2 C5.93359375 2.4140625 5.93359375 2.4140625 3.4375 2.625 C2.61121094 2.69976563 1.78492188 2.77453125 0.93359375 2.8515625 C-0.02353516 2.92503906 -0.02353516 2.92503906 -1 3 C-0.67 2.01 -0.34 1.02 0 0 Z " fill="#020202" transform="translate(24,15)"/>
<path d="M0 0 C0.33 0 0.66 0 1 0 C1.268125 0.94875 1.53625 1.8975 1.8125 2.875 C2.74986588 6.25267273 2.74986588 6.25267273 6 8 C3.625 8.1875 3.625 8.1875 1 8 C-1 5 -1 5 -0.625 2.3125 C-0.41875 1.549375 -0.2125 0.78625 0 0 Z " fill="#555555" transform="translate(52,69)"/>
<path d="M0 0 C0.99 0 1.98 0 3 0 C2.67 1.98 2.34 3.96 2 6 C1.01 6 0.02 6 -1 6 C-0.67 4.02 -0.34 2.04 0 0 Z " fill="#CDEAF5" transform="translate(8,55)"/>
<path d="M0 0 C0.99 0.33 1.98 0.66 3 1 C3 2.32 3 3.64 3 5 C3.66 5.33 4.32 5.66 5 6 C3.35 6.33 1.7 6.66 0 7 C-1.125 2.25 -1.125 2.25 0 0 Z " fill="#4C74AE" transform="translate(65,30)"/>
<path d="M0 0 C1.45792884 -0.05399736 2.91642712 -0.09279177 4.375 -0.125 C5.18710937 -0.14820312 5.99921875 -0.17140625 6.8359375 -0.1953125 C9 0 9 0 11 2 C6.70700357 3.26264601 4.12168689 2.62950412 0 1 C0 0.67 0 0.34 0 0 Z " fill="#D2D1D0" transform="translate(14,30)"/>
<path d="M0 0 C0.66 0 1.32 0 2 0 C2 0.66 2 1.32 2 2 C3.32 2 4.64 2 6 2 C6 2.66 6 3.32 6 4 C6.99 4.33 7.98 4.66 9 5 C5.80097361 5.08886184 3.07322544 4.91058531 0 4 C0 2.68 0 1.36 0 0 Z " fill="#39393C" transform="translate(33,29)"/>
<path d="M0 0 C2 1.1875 2 1.1875 4 3 C4.25 5.6875 4.25 5.6875 4 8 C3.34 8 2.68 8 2 8 C-0.1519437 4.77208445 -0.20086443 3.71599191 0 0 Z " fill="#090E15" transform="translate(53,25)"/>
<path d="M0 0 C0.33 0.66 0.66 1.32 1 2 C2.32 2 3.64 2 5 2 C4.67 2.66 4.34 3.32 4 4 C3.01 3.67 2.02 3.34 1 3 C1.33 4.32 1.66 5.64 2 7 C1.01 6.67 0.02 6.34 -1 6 C-1.042721 4.33388095 -1.04063832 2.66617115 -1 1 C-0.67 0.67 -0.34 0.34 0 0 Z " fill="#505050" transform="translate(103,69)"/>
<path d="M0 0 C1.32 0 2.64 0 4 0 C4 0.66 4 1.32 4 2 C2.68 2.33 1.36 2.66 0 3 C-0.33 4.32 -0.66 5.64 -1 7 C-1.625 5.1875 -1.625 5.1875 -2 3 C-1.34 2.01 -0.68 1.02 0 0 Z " fill="#F0F3F3" transform="translate(45,64)"/>
<path d="M0 0 C1.98 0 3.96 0 6 0 C6 0.66 6 1.32 6 2 C5.05125 2.309375 4.1025 2.61875 3.125 2.9375 C0.13919592 3.87394742 0.13919592 3.87394742 -2 5 C-1.34 3.35 -0.68 1.7 0 0 Z " fill="#DFF7FB" transform="translate(112,59)"/>
<path d="M0 0 C1.32 0 2.64 0 4 0 C4.33 1.65 4.66 3.3 5 5 C3.68 5 2.36 5 1 5 C0.67 3.35 0.34 1.7 0 0 Z " fill="#ECFBFE" transform="translate(18,55)"/>
<path d="M0 0 C1.485 0.99 1.485 0.99 3 2 C2.67 4.31 2.34 6.62 2 9 C-0.29013653 5.5647952 -0.17842973 4.014669 0 0 Z " fill="#2A5EB6" transform="translate(3,50)"/>
<path d="M0 0 C0.33 0.66 0.66 1.32 1 2 C1.66 2 2.32 2 3 2 C3 2.66 3 3.32 3 4 C0.69 4 -1.62 4 -4 4 C-3.67 3.01 -3.34 2.02 -3 1 C-2.01 0.67 -1.02 0.34 0 0 Z " fill="#090909" transform="translate(98,23)"/>
<path d="M0 0 C1.32 0.33 2.64 0.66 4 1 C4 1.99 4 2.98 4 4 C4.66 4.33 5.32 4.66 6 5 C4.02 5 2.04 5 0 5 C0 3.35 0 1.7 0 0 Z " fill="#DEDEDE" transform="translate(29,74)"/>
<path d="M0 0 C0.99 0 1.98 0 3 0 C3 0.66 3 1.32 3 2 C3.99 2 4.98 2 6 2 C6 2.66 6 3.32 6 4 C4.35 4.33 2.7 4.66 1 5 C0.67 3.35 0.34 1.7 0 0 Z " fill="#ACACAC" transform="translate(104,72)"/>
<path d="M0 0 C2.9375 0.375 2.9375 0.375 6 1 C6.33 1.66 6.66 2.32 7 3 C4.36 3 1.72 3 -1 3 C-0.67 2.01 -0.34 1.02 0 0 Z " fill="#4A71B3" transform="translate(125,61)"/>
<path d="M0 0 C0.99 0.99 1.98 1.98 3 3 C2.67 3.99 2.34 4.98 2 6 C0.68 6 -0.64 6 -2 6 C-1.34 4.02 -0.68 2.04 0 0 Z " fill="#3467A9" transform="translate(43,49)"/>
<path d="M0 0 C0.99 1.32 1.98 2.64 3 4 C2.01 4.495 2.01 4.495 1 5 C1 5.66 1 6.32 1 7 C0.01 6.67 -0.98 6.34 -2 6 C-1.34 4.02 -0.68 2.04 0 0 Z " fill="#2F66B2" transform="translate(17,44)"/>
<path d="M0 0 C2.52588702 2.36292656 3.88820837 3.66462511 5 7 C4.01 7.495 4.01 7.495 3 8 C2.87625 7.071875 2.87625 7.071875 2.75 6.125 C2.18741541 3.81562433 2.18741541 3.81562433 -0.0625 2.75 C-0.701875 2.5025 -1.34125 2.255 -2 2 C-1.34 2 -0.68 2 0 2 C0 1.34 0 0.68 0 0 Z " fill="#E0E2DF" transform="translate(45,34)"/>
</svg>
